<?xml version="1.0" encoding="iso-8859-1"?>
<!-- Generator: Adobe Illustrator 19.0.0, SVG Export Plug-In . SVG Version: 6.00 Build 0)  -->
<svg version="1.1" id="Layer_1" xmlns="http://www.w3.org/2000/svg" xmlns:xlink="http://www.w3.org/1999/xlink" x="0px" y="0px"
	 viewBox="0 0 512 512" style="enable-background:new 0 0 512 512;" xml:space="preserve">
<path style="fill:#F0CE49;" d="M422.841,152.717C414.014,73.269,350.455,9.71,271.007,0.883C265.71,0.883,261.297,0,256,0
	c-5.297,0-9.71,0-15.007,0.883C161.545,9.71,97.986,74.152,89.159,152.717c-6.179,56.497,15.007,107.697,52.083,143.007
	c21.186,20.303,38.841,46.786,44.138,75.034h141.241c5.297-28.248,22.952-54.731,44.138-75.034
	C407.834,260.414,429.021,209.214,422.841,152.717"/>
<path style="fill:#25AE88;" d="M361.931,167.724c0-58.262-47.669-105.931-105.931-105.931s-105.931,47.669-105.931,105.931
	S197.738,273.655,256,273.655S361.931,225.986,361.931,167.724"/>
<g>
	<path style="fill:#FFFFFF;" d="M247.172,220.69c-2.648,0-4.414-0.883-6.179-2.648l-35.31-35.31c-3.531-3.531-3.531-8.828,0-12.359
		c3.531-3.531,8.828-3.531,12.359,0l35.31,35.31c3.531,3.531,3.531,8.828,0,12.359C251.586,219.807,249.821,220.69,247.172,220.69"
		/>
	<path style="fill:#FFFFFF;" d="M247.172,220.69c-1.766,0-3.531-0.883-5.297-1.766c-3.531-2.648-4.414-8.828-1.766-12.359
		l61.793-79.448c2.648-3.531,8.828-4.414,12.359-1.766s4.414,8.828,1.766,12.359l-61.793,79.448
		C252.469,219.807,249.821,220.69,247.172,220.69"/>
</g>
<path style="fill:#E8EDEE;" d="M185.379,370.759V476.69h141.241v-70.621v-35.31H185.379z"/>
<g>
	<path style="fill:#CBD4D8;" d="M269.241,512h-26.483c-7.945,0-15.89-3.531-21.186-10.593l-18.538-24.717h105.931l-18.538,24.717
		C285.131,508.469,277.186,512,269.241,512"/>
	<path style="fill:#CBD4D8;" d="M247.172,414.897c5.297,0,8.828-3.531,8.828-8.828s-3.531-8.828-8.828-8.828h-61.793v17.655H247.172
		z"/>
	<path style="fill:#CBD4D8;" d="M220.69,450.207c5.297,0,8.828-3.531,8.828-8.828s-3.531-8.828-8.828-8.828h-35.31v17.655H220.69z"
		/>
	<path style="fill:#CBD4D8;" d="M326.621,397.241h-35.31c-5.297,0-8.828,3.531-8.828,8.828s3.531,8.828,8.828,8.828h35.31v-8.828
		V397.241z"/>
	<path style="fill:#CBD4D8;" d="M264.828,432.552c-5.297,0-8.828,3.531-8.828,8.828s3.531,8.828,8.828,8.828h61.793v-17.655H264.828
		z"/>
</g>
<g>
</g>
<g>
</g>
<g>
</g>
<g>
</g>
<g>
</g>
<g>
</g>
<g>
</g>
<g>
</g>
<g>
</g>
<g>
</g>
<g>
</g>
<g>
</g>
<g>
</g>
<g>
</g>
<g>
</g>
</svg>
