<?xml version="1.0" encoding="iso-8859-1"?>
<!-- Generator: Adobe Illustrator 19.0.0, SVG Export Plug-In . SVG Version: 6.00 Build 0)  -->
<svg xmlns="http://www.w3.org/2000/svg" xmlns:xlink="http://www.w3.org/1999/xlink" version="1.1" id="Capa_1" x="0px" y="0px" viewBox="0 0 512 512" style="enable-background:new 0 0 512 512;" xml:space="preserve" width="512px" height="512px">
<g>
	<g>
		<path d="M472.067,264.529h-6.938c-0.991-7.051-4.171-13.848-9.561-19.259c-4.633-4.651-10.459-7.822-16.785-9.202    c-2.102-5.646-5.393-10.797-9.68-15.101c-7.972-8.003-18.572-12.41-29.848-12.41c-1.583,0-3.15,0.097-4.702,0.268    c-5.801-16.482-21.48-28.325-39.87-28.325c-16.617,0-31.016,9.674-37.918,23.7c-5.431-11.232-16.897-18.995-30.135-18.995    c-18.322,0-33.254,14.867-33.481,33.23c-12.385,2.858-22.15,12.647-25.071,25.065h-71.059v-63.501c0-4.143-3.358-7.5-7.5-7.5    c-4.142,0-7.5,3.357-7.5,7.5v211.896h-4.07V83.867h4.07v62.132c0,4.143,3.358,7.5,7.5,7.5c4.142,0,7.5-3.357,7.5-7.5V12.5    c0-6.893-5.607-12.5-12.5-12.5h-9.07c-6.893,0-12.5,5.607-12.5,12.5v231H117.6c-6.893,0-12.5,5.607-12.5,12.5v40.097    c0,6.893,5.607,12.5,12.5,12.5h5.349v83.298h-1.273c-6.893,0-12.5,5.608-12.5,12.5v25.643H82.475c-6.893,0-12.5,5.607-12.5,12.5    v13.987h-20.68c-12.055,0-21.862,9.808-21.862,21.862c0,7.381,3.681,13.914,9.299,17.875l-2.935,2.935    c-2.929,2.93-2.929,7.678,0,10.607C35.261,511.268,37.18,512,39.1,512c1.919,0,3.839-0.732,5.303-2.196l9.556-9.556h4.397    c-2.018,2.923-1.732,6.955,0.869,9.556c1.464,1.464,3.384,2.196,5.303,2.196c1.92,0,3.839-0.732,5.303-2.196l9.556-9.556h4.396    c-2.017,2.922-1.731,6.955,0.869,9.555c1.465,1.465,3.384,2.197,5.304,2.197c1.919,0,3.839-0.732,5.303-2.196l9.556-9.556h4.396    c-2.017,2.922-1.731,6.955,0.869,9.555c1.465,1.465,3.384,2.197,5.304,2.197c1.919,0,3.839-0.732,5.303-2.196l9.556-9.556h3.863    v4.252c0,4.143,3.358,7.5,7.5,7.5c4.142,0,7.5-3.357,7.5-7.5v-4.252h3.863l9.556,9.556c1.465,1.464,3.384,2.196,5.303,2.196    c1.919,0,3.839-0.732,5.304-2.197c2.6-2.6,2.886-6.633,0.869-9.555h4.397l9.556,9.556c1.464,1.464,3.384,2.196,5.303,2.196    s3.839-0.732,5.303-2.196c2.601-2.601,2.887-6.633,0.869-9.556h4.396l9.556,9.556c1.464,1.464,3.384,2.196,5.303,2.196    s3.839-0.732,5.303-2.196c2.601-2.601,2.887-6.633,0.869-9.556h4.396l9.556,9.556c1.464,1.464,3.384,2.196,5.303,2.196    c1.92,0,3.839-0.732,5.303-2.196c2.929-2.93,2.929-7.678,0-10.607l-4.361-4.361c2.006-1.755,3.689-3.868,4.948-6.241H342    c4.142,0,7.5-3.358,7.5-7.5c0-4.143-3.358-7.5-7.5-7.5h-89.997c-2.192-9.756-10.919-17.069-21.327-17.069h-20.682v-13.987    c0-6.893-5.607-12.5-12.5-12.5h-26.701v-25.643c0-6.892-5.607-12.5-12.5-12.5h-1.273v-83.298h290.333l-19.148,103.801    l-93.491-49.805c-0.878-21.241-18.425-38.254-39.879-38.254c-22.013,0-39.922,17.908-39.922,39.921s17.909,39.922,39.922,39.922    c7.498,0,14.512-2.09,20.511-5.702l105.099,55.989l-2.846,15.431c-0.344,1.864-2.542,3.694-4.438,3.694H382    c-4.142,0-7.5,3.357-7.5,7.5c0,4.142,3.358,7.5,7.5,7.5h31.16c9.108,0,17.538-7.017,19.189-15.974l2.643-14.329    c6.724-0.684,12.705-4.641,15.927-10.688c5.286-9.923,1.515-22.296-8.407-27.583l-0.419-0.223l20.513-111.2h9.461    c6.893,0,12.5-5.607,12.5-12.5v-19.067C484.567,270.137,478.96,264.529,472.067,264.529z M137.95,15h4.07v53.867h-4.07V15z     M124.177,406.894h31.617v23.143h-31.617V406.894z M120.102,258.5h2.849v14.068h-2.849V258.5z M120.102,293.597v-6.028h2.849    v6.028H120.102z M194.996,445.037v11.487h-0.001H186c-4.142,0-7.5,3.357-7.5,7.5s3.358,7.5,7.5,7.5h44.677    c3.784,0,6.862,3.078,6.862,6.862c0,3.783-3.079,6.861-6.862,6.861H49.295c-3.784,0-6.862-3.078-6.862-6.861    c0-3.784,3.079-6.862,6.862-6.862H147c4.142,0,7.5-3.357,7.5-7.5s-3.358-7.5-7.5-7.5H84.975v-11.487H194.996z M294.835,389.182    c-13.742,0-24.922-11.18-24.922-24.922c0-13.741,11.18-24.921,24.922-24.921c9.791,0,18.274,5.68,22.346,13.913l-8.228-4.383    c-2.943-1.568-6.254-2.396-9.575-2.396c-7.556,0-14.456,4.141-18.006,10.805c-2.562,4.807-3.098,10.323-1.509,15.533    c1.588,5.209,5.11,9.488,9.917,12.049l7.804,4.157C296.68,389.117,295.765,389.182,294.835,389.182z M437.682,440.55    c-0.939,1.763-2.766,2.858-4.768,2.858c-0.882,0-1.73-0.214-2.522-0.636l-133.559-71.151c-1.271-0.677-2.202-1.809-2.622-3.186    c-0.42-1.376-0.278-2.834,0.399-4.104c0.939-1.764,2.767-2.858,4.768-2.858c0.882,0,1.73,0.213,2.522,0.635l133.56,71.15    C438.082,434.655,439.079,437.927,437.682,440.55z M399.256,223.558c7.258,0,14.085,2.84,19.221,7.996    c3.572,3.586,6.073,8.081,7.233,12.998c0.764,3.236,3.566,5.584,6.886,5.767c4.661,0.258,9.045,2.225,12.345,5.538    c2.476,2.485,4.116,5.493,4.93,8.673h-30.692c-3.377-11.294-13.81-19.548-26.137-19.548h-4.582    c-1.375-5.336-4.2-10.083-8.002-13.831C385.544,226.254,392.193,223.558,399.256,223.558z M354.685,195.5    c11.612,0,21.546,7.334,25.471,17.633c-3.92,2.002-7.548,4.623-10.747,7.835c-0.819,0.822-1.583,1.677-2.319,2.549    c-2.384-0.62-4.881-0.952-7.455-0.952c-6.245,0-12.235,1.991-17.189,5.52c-3.589-5.13-8.539-9.141-14.273-11.58    C331.051,204.471,341.842,195.5,354.685,195.5z M258.549,232.715c0.154-0.018,1.507-0.126,2.038-0.128    c0.215,0.015,0.731,0.029,0.773,0.03c4.298,0.166,8.398,1.814,11.61,4.717c3.074,2.778,7.816,2.539,10.593-0.536    c2.777-3.073,2.537-7.815-0.536-10.593c-4.255-3.846-9.37-6.493-14.859-7.762c0.221-10.092,8.41-18.238,18.463-18.238    c10.192,0,18.484,8.368,18.484,18.653c0,0.619-0.031,1.235-0.095,1.884c-0.222,2.238,0.573,4.458,2.165,6.047    c1.592,1.59,3.812,2.383,6.052,2.153c0.638-0.064,1.244-0.096,1.853-0.096c7.707,0,14.448,4.774,17.18,11.864    c-1.547,3.614-2.408,7.593-2.408,11.77c0,4.143,3.358,7.5,7.5,7.5c4.142,0,7.5-3.357,7.5-7.5c0-2.882,0.83-5.563,2.239-7.846    c0.08-0.13,0.647-0.983,0.865-1.268c2.777-3.621,7.088-5.804,11.668-5.804c8.146,0,14.773,6.691,14.773,14.917    c0,4.143,3.358,7.5,7.5,7.5h11.134c3.821,0,7.23,1.776,9.484,4.548h-104.08V256c0-6.893-5.607-12.5-12.5-12.5h-42.072    C246.51,237.688,252.003,233.466,258.549,232.715z M157.021,258.5h126.425v14.068H157.021V258.5z M469.568,293.597    L469.568,293.597H157.021v-6.028h128.926c5.319,0,9.861-3.346,11.663-8.039h171.958V293.597z" fill="#0062ff"/>
	</g>
</g>
<g>
	<g>
		<path d="M352.999,45.291c-27.278,0-49.471,22.494-49.471,50.144c0,27.649,22.192,50.142,49.471,50.142    c27.28,0,49.474-22.493,49.474-50.142S380.279,45.291,352.999,45.291z M352.999,130.578c-19.007,0-34.471-15.765-34.471-35.142    c0-19.378,15.463-35.144,34.471-35.144c19.009,0,34.474,15.766,34.474,35.144C387.473,114.813,372.008,130.578,352.999,130.578z" fill="#0062ff"/>
	</g>
</g>
<g>
	<g>
		<path d="M427.001,133.369c-16.382,0-29.711,13.487-29.711,30.066c0,16.578,13.329,30.065,29.711,30.065    c16.381,0,29.708-13.487,29.708-30.065S443.382,133.369,427.001,133.369z M427.001,178.5c-8.111,0-14.711-6.759-14.711-15.065    c0-8.307,6.6-15.066,14.711-15.066c8.11,0,14.708,6.759,14.708,15.066S435.111,178.5,427.001,178.5z" fill="#0062ff"/>
	</g>
</g>
<g>
</g>
<g>
</g>
<g>
</g>
<g>
</g>
<g>
</g>
<g>
</g>
<g>
</g>
<g>
</g>
<g>
</g>
<g>
</g>
<g>
</g>
<g>
</g>
<g>
</g>
<g>
</g>
<g>
</g>
</svg>
