<?xml version="1.0" encoding="iso-8859-1"?>
<!-- Generator: Adobe Illustrator 19.0.0, SVG Export Plug-In . SVG Version: 6.00 Build 0)  -->
<svg xmlns="http://www.w3.org/2000/svg" xmlns:xlink="http://www.w3.org/1999/xlink" version="1.1" id="Capa_1" x="0px" y="0px" viewBox="0 0 511.999 511.999" style="enable-background:new 0 0 511.999 511.999;" xml:space="preserve" width="512px" height="512px">
<g>
	<g>
		<path d="M396,40c-5.52,0-10,4.48-10,10s4.48,10,10,10c5.52,0,10-4.48,10-10S401.52,40,396,40z" fill="#0062ff"/>
	</g>
</g>
<g>
	<g>
		<path d="M246,452c-5.52,0-10,4.48-10,10c0,5.52,4.48,10,10,10s10-4.48,10-10C256,456.48,251.52,452,246,452z" fill="#0062ff"/>
	</g>
</g>
<g>
	<g>
		<path d="M456,60h-10V30c0-16.542-13.458-30-30-30H76C59.458,0,46,13.458,46,30v30H36c-5.523,0-10,4.478-10,10    c0,5.522,4.477,10,10,10h10v33c0,16.542,13.458,30,30,30h340c16.542,0,30-13.458,30-30V80h10c5.514,0,10,4.486,10,10v65.84    c0,4.974-3.566,9.132-8.479,9.887c-0.075,0.012-0.151,0.024-0.227,0.037l-195.979,34.762C246.638,202.842,236,215.285,236,230.16    V243h-30c-8.01,0-15.543,3.121-21.211,8.79C179.121,257.458,176,264.99,176,273c0,16.085,12.726,29.251,28.639,29.965    l-18.089,140.904v0.001c0,0.004-0.001,0.007-0.001,0.01l-0.007,0.056c-0.001,0.005,0,0.01-0.001,0.014    c-0.358,2.676-0.54,5.384-0.54,8.049c0,33.084,26.916,60,60,60c33.084,0,60-26.916,60-60c0-2.661-0.182-5.365-0.539-8.037    c-0.001-0.009-0.001-0.017-0.002-0.026l-18.097-140.97c7.499-0.333,14.504-3.41,19.849-8.756c5.667-5.667,8.788-13.2,8.788-21.21    c0-16.542-13.458-30-30-30h-30v-12.84c0-4.974,3.566-9.132,8.479-9.887c0.075-0.012,0.151-0.024,0.227-0.037l195.979-34.762    C475.359,183.157,486,170.715,486,155.84V90C486,73.458,472.542,60,456,60z M426,113c0,5.514-4.486,10-10,10H76    c-5.514,0-10-4.486-10-10V30c0-5.514,4.486-10,10-10h340c5.514,0,10,4.486,10,10V113z M246,492c-22.056,0-40-17.944-40-40    c0-1.8,0.125-3.634,0.37-5.451c0.002-0.012,0.001-0.023,0.003-0.035c0.001-0.01,0.004-0.02,0.005-0.031L224.798,303h42.403    l18.42,143.483c0.002,0.012,0.005,0.024,0.006,0.036c0.001,0.01,0.001,0.02,0.003,0.03c0.246,1.817,0.37,3.651,0.37,5.451    C286,474.056,268.056,492,246,492z M286,263c5.514,0,10,4.486,10,10c0,2.668-1.041,5.178-2.932,7.068    c-1.891,1.89-4.4,2.932-7.068,2.932h-10h-60h-10c-5.514,0-10-4.486-10-10c0-2.668,1.041-5.179,2.931-7.068    c1.89-1.891,4.401-2.932,7.069-2.932H286z" fill="#0062ff"/>
	</g>
</g>
<g>
	<g>
		<path d="M356,40H96c-5.523,0-10,4.478-10,10s4.477,10,10,10h260c5.522,0,10-4.478,10-10S361.522,40,356,40z" fill="#0062ff"/>
	</g>
</g>
<g>
</g>
<g>
</g>
<g>
</g>
<g>
</g>
<g>
</g>
<g>
</g>
<g>
</g>
<g>
</g>
<g>
</g>
<g>
</g>
<g>
</g>
<g>
</g>
<g>
</g>
<g>
</g>
<g>
</g>
</svg>
