<?xml version="1.0" encoding="iso-8859-1"?>
<!-- Generator: Adobe Illustrator 19.0.0, SVG Export Plug-In . SVG Version: 6.00 Build 0)  -->
<svg version="1.1" id="Capa_1" xmlns="http://www.w3.org/2000/svg" xmlns:xlink="http://www.w3.org/1999/xlink" x="0px" y="0px"
	 viewBox="0 0 512 512" style="enable-background:new 0 0 512 512;" xml:space="preserve">
<g>
	<path style="fill:#547580;" d="M291.31,423.724V256c-0.023-29.242-23.723-52.942-52.965-52.966H114.759
		C85.516,203.058,61.816,226.758,61.793,256v167.724l17.655,44.138h194.207L291.31,423.724z"/>
	<path style="fill:none;stroke:#000000;stroke-width:2;stroke-linecap:round;stroke-linejoin:round;" d="M194.207,256
		c0,9.751-7.904,17.655-17.655,17.655s-17.655-7.904-17.655-17.655"/>
	<g>
		<path style="fill:#E6E7E8;" d="M194.207,203.034h44.138v150.069c0.003,9.366-3.717,18.348-10.339,24.971
			c-6.623,6.622-15.605,10.342-24.971,10.339h-52.966c-9.366,0.003-18.348-3.717-24.971-10.339
			c-6.623-6.623-10.342-15.605-10.339-24.971V203.034h44.138"/>
		<rect x="114.759" y="308.966" style="fill:#84B5CB;" width="123.586" height="17.655"/>
		<g>
			<path style="fill:#2C3E50;" d="M52.966,423.724h17.655c4.875,0,8.828,3.952,8.828,8.828v70.621c0,4.875-3.952,8.828-8.828,8.828
				H52.966c-4.875,0-8.828-3.952-8.828-8.828v-70.621C44.138,427.676,48.09,423.724,52.966,423.724z"/>
			<path style="fill:#2C3E50;" d="M282.483,423.724h17.655c4.875,0,8.828,3.952,8.828,8.828v70.621c0,4.875-3.952,8.828-8.828,8.828
				h-17.655c-4.875,0-8.828-3.952-8.828-8.828v-70.621C273.655,427.676,277.607,423.724,282.483,423.724z"/>
		</g>
		<path style="fill:#D1D4D1;" d="M423.724,114.759v264.828h-35.31V114.759c-0.004-43.877-35.572-79.445-79.448-79.448h-35.31
			c-43.877,0.004-79.445,35.572-79.448,79.448V256c0,9.751-7.904,17.655-17.655,17.655s-17.655-7.904-17.655-17.655V114.759
			c-0.001-30.436,12.089-59.626,33.611-81.148S243.219-0.001,273.655,0h35.31c30.436-0.001,59.626,12.089,81.148,33.611
			S423.725,84.322,423.724,114.759z"/>
		<path style="fill:#41767F;" d="M397.241,361.931h17.655c9.751,0,17.655,7.905,17.655,17.655v79.448h-52.966v-79.448
			C379.586,369.836,387.491,361.931,397.241,361.931z"/>
		<path style="fill:#84B5CB;" d="M379.586,441.379h52.966c9.751,0,17.655,7.905,17.655,17.655v35.31h-88.276v-35.31
			C361.931,449.284,369.836,441.379,379.586,441.379z"/>
		<polygon style="fill:#547580;" points="467.862,512 344.276,512 361.931,476.69 450.207,476.69 		"/>
		<path style="fill:#84B5CB;" d="M185.379,361.931h-17.655c-4.875,0-8.828-3.952-8.828-8.828s3.952-8.828,8.828-8.828h17.655
			c4.875,0,8.828,3.952,8.828,8.828S190.255,361.931,185.379,361.931z"/>
	</g>
</g>
<g>
</g>
<g>
</g>
<g>
</g>
<g>
</g>
<g>
</g>
<g>
</g>
<g>
</g>
<g>
</g>
<g>
</g>
<g>
</g>
<g>
</g>
<g>
</g>
<g>
</g>
<g>
</g>
<g>
</g>
</svg>
