<?xml version="1.0" encoding="utf-8"?>
<!-- Generator: Adobe Illustrator 21.0.0, SVG Export Plug-In . SVG Version: 6.00 Build 0)  -->
<svg version="1.1" id="Layer_1" xmlns="http://www.w3.org/2000/svg" xmlns:xlink="http://www.w3.org/1999/xlink" x="0px" y="0px"
	 viewBox="0 0 512 512" style="enable-background:new 0 0 512 512;" xml:space="preserve">
<style type="text/css">
	.st0{fill:#8BC34A;}
</style>
<g>
	<g>
		<g>
			<path class="st0" d="M212.9,495.8H40.4c-13.4,0-24.3-10.9-24.3-24.3s10.9-24.3,24.3-24.3h54.3c4.9,0,9.5-1.9,13-5.4
				c3.5-3.6,5.5-8.3,5.5-13.3v-0.1c0-13.4,10.9-24.3,24.3-24.3h32.3c4.5,0,8.1-3.6,8.1-8.1c0-4.5-3.6-8.1-8.1-8.1h-32.3
				c-22.3,0-40.4,18.1-40.4,40.4v0.1c0,1-0.5,1.6-0.8,1.9c-0.4,0.4-1,0.7-1.6,0.7H40.4C18.1,431.2,0,449.3,0,471.6
				S18.1,512,40.4,512h172.5c4.5,0,8.1-3.6,8.1-8.1C221,499.5,217.3,495.8,212.9,495.8z"/>
			<path class="st0" d="M482.4,118.6h-36.9c-3-6.4-9.5-10.8-17-10.8h-53.9c-7.5,0-14,4.4-17,10.8h-36.9c-4.5,0-8.1,3.6-8.1,8.1
				c0,4.5,3.6,8.1,8.1,8.1h35v2.2c0,15.6,11.5,28.5,26.7,30c1.9,0.2,3.8,0.2,5.6,0v34.6c0,16.3,12.5,29.6,28.6,30.1
				c8.1,0.3,15.8-2.7,21.7-8.3c5.8-5.6,9.1-13.2,9.1-21.3v-2.7h26.2l-14.2,163.7c-0.4,4.4,2.9,8.4,7.4,8.8c0.2,0,0.5,0,0.7,0
				c4.1,0,7.7-3.2,8-7.4l14.4-166c12.7-3.3,22.1-14.9,22.1-28.7v-21.6C512,131.9,498.7,118.6,482.4,118.6z M431.2,126.7v75.5
				c0,3.7-1.5,7.1-4.1,9.7c-2.7,2.6-6.1,3.9-9.9,3.8c-7.2-0.3-13-6.5-13-14v-45.5c0-2.9-1.5-5.6-4-7c-1.3-0.7-2.6-1.1-4-1.1
				c-1.4,0-2.8,0.4-4.1,1.1c-2.5,1.4-5.2,2-8.1,1.8c-6.8-0.7-12.1-6.8-12.1-13.9v-10.3c0-1.5,1.2-2.7,2.7-2.7h53.9
				C429.9,124,431.2,125.2,431.2,126.7L431.2,126.7L431.2,126.7z M495.8,169.8c0,7.4-6,13.4-13.4,13.5c-0.1,0-0.1,0-0.2,0h-34.9
				v-48.5h35c7.4,0,13.5,6,13.5,13.5L495.8,169.8L495.8,169.8z"/>
			<path class="st0" d="M363.8,199.4c4.5,0,8.1-3.6,8.1-8.1s-3.6-8.1-8.1-8.1h-43.1c-4.5,0-8.1,3.6-8.1,8.1s3.6,8.1,8.1,8.1H363.8z"
				/>
			<path class="st0" d="M499.1,413.3c-16.4-28-46.8-46.8-81.4-46.8H353c-7.4,0-13.5-6-13.5-13.5v-10.8c0-2.9-0.4-5.8-1.2-8.5
				c7.3-5.4,12-14.1,12-23.8c0-16.3-13.3-29.6-29.6-29.6h-13.5v-2.7c0-7.5-4.4-14-10.8-17V29.6c0-16.3-13.3-29.6-29.6-29.6
				s-29.6,13.3-29.6,29.6v88.9h-99.7c-16.3,0-29.6,13.3-29.6,29.6v21.6c0,13.8,9.4,25.4,22.1,28.7l14.4,166c0.4,4.5,4.3,7.8,8.8,7.4
				c4.4-0.4,7.7-4.3,7.4-8.8l-14.2-163.7h90.9v61.1c-6.4,3-10.8,9.5-10.8,17v2.7h-13.5c-16.3,0-29.6,13.3-29.6,29.6
				c0,9.8,4.7,18.4,12,23.8c-0.8,2.7-1.2,5.6-1.2,8.5v75.5c0,52,42.3,94.3,94.3,94.3h204.8c10.4,0,18.9-8.5,18.9-18.9v-32.3
				c0-17-4.5-33-12.5-46.8C499.4,413.8,499.3,413.5,499.1,413.3z M253.3,29.6c0-7.4,6-13.5,13.5-13.5s13.5,6,13.5,13.5v229.1h-26.9
				L253.3,29.6L253.3,29.6z M137.5,183.2c-0.1,0-0.1,0-0.2,0c-7.4,0-13.4-6.1-13.4-13.5v-21.6c0-7.4,6-13.5,13.5-13.5h99.7v48.5
				L137.5,183.2L137.5,183.2z M495.8,493.1c0,1.5-1.2,2.7-2.7,2.7H374.6c-43.1,0-78.1-35.1-78.1-78.1v-53.9c0-4.5-3.6-8.1-8.1-8.1
				c-4.5,0-8.1,3.6-8.1,8.1v53.9c0,32,16,60.4,40.5,77.4c-38-5.2-67.4-38-67.4-77.4v-53.9c0-4.5-3.6-8.1-8.1-8.1
				c-4.5,0-8.1,3.6-8.1,8.1v53.9c0,32,16,60.4,40.5,77.4c-38-5.2-67.4-38-67.4-77.4v-75.5c0-0.9,0.1-1.9,0.3-2.8
				c0.8,0.1,1.6,0.1,2.4,0.1h64.7c4.5,0,8.1-3.6,8.1-8.1s-3.6-8.1-8.1-8.1h-64.7c-7.4,0-13.5-6-13.5-13.5s6-13.5,13.5-13.5h21.6
				c4.5,0,8.1-3.6,8.1-8.1v-10.8c0-1.5,1.2-2.7,2.7-2.7h43.1c1.5,0,2.7,1.2,2.7,2.7v10.8c0,4.5,3.6,8.1,8.1,8.1h21.6
				c7.4,0,13.5,6,13.5,13.5s-6,13.5-13.5,13.5h-10.8c-4.5,0-8.1,3.6-8.1,8.1c0,4.5,3.6,8.1,8.1,8.1h10.8c0.8,0,1.6,0,2.4-0.1
				c0.2,0.9,0.3,1.9,0.3,2.8V353c0,16.3,13.3,29.6,29.6,29.6h64.7c23.5,0,44.7,10.4,59,26.9H374.6c-13.3,0-26.3-3.4-37.9-9.8
				c-3.9-2.2-8.8-0.8-11,3.1c-2.2,3.9-0.8,8.8,3.1,11c13.9,7.7,29.7,11.8,45.7,11.8h113c4.2,8.3,6.9,17.3,7.9,26.9H374.6
				c-13.3,0-26.3-3.4-37.9-9.8c-3.9-2.2-8.8-0.8-11,3.1c-2.2,3.9-0.8,8.8,3.1,11c13.9,7.7,29.7,11.8,45.7,11.8h121.3L495.8,493.1
				L495.8,493.1z"/>
		</g>
	</g>
</g>
</svg>
