<?xml version="1.0" encoding="utf-8"?>
<!-- Generator: Adobe Illustrator 21.0.0, SVG Export Plug-In . SVG Version: 6.00 Build 0)  -->
<svg version="1.1" id="Capa_1" xmlns="http://www.w3.org/2000/svg" xmlns:xlink="http://www.w3.org/1999/xlink" x="0px" y="0px"
	 viewBox="0 0 512 512" style="enable-background:new 0 0 512 512;" xml:space="preserve">
<style type="text/css">
	.st0{fill:#8BC34A;}
</style>
<path class="st0" d="M418.6,336.7c-12.5,0-24.4,4.9-33.4,13.8c-9,9-14,20.6-14,33.2c0,12.5,4.9,24.2,14,33.2
	c9.1,8.9,20.9,13.8,33.4,13.8c25.6,0,46.5-21.1,46.5-46.9C465.1,357.8,444.2,336.7,418.6,336.7z M418.6,409.7
	c-14.4,0-26.5-11.9-26.5-26.1c0-14.2,12.1-26.1,26.5-26.1c14.2,0,25.6,11.7,25.6,26.1C444.2,398,432.8,409.7,418.6,409.7z
	 M430.7,180.4c-1.9-1.8-4.4-2.7-7-2.7h-53.5c-5.7,0-10.4,4.7-10.4,10.4v85.5c0,5.7,4.7,10.4,10.4,10.4h84.9
	c5.7,0,10.4-4.7,10.4-10.4v-57.2c0-2.9-1.3-5.7-3.4-7.7L430.7,180.4z M444.7,263.2h-64v-64.7h39l25,22.5V263.2z M164,336.7
	c-12.5,0-24.4,4.9-33.4,13.8c-9,9-14,20.6-14,33.2c0,12.5,4.9,24.2,14,33.2c9.1,8.9,20.9,13.8,33.4,13.8c25.6,0,46.5-21.1,46.5-46.9
	C210.5,357.8,189.6,336.7,164,336.7z M164,409.7c-14.4,0-26.5-11.9-26.5-26.1c0-14.2,12.1-26.1,26.5-26.1
	c14.2,0,25.6,11.7,25.6,26.1C189.6,398,178.2,409.7,164,409.7z M94.5,349.5h-21v-27.7c0-5.7-4.7-10.4-10.4-10.4s-10.4,4.7-10.4,10.4
	v38.2c0,5.7,4.7,10.4,10.4,10.4h31.4c5.7,0,10.4-4.7,10.4-10.4S100.2,349.5,94.5,349.5z M147.3,292.7c0-5.7-4.7-10.4-10.4-10.4H10.4
	C4.7,282.3,0,287,0,292.7s4.7,10.4,10.4,10.4h126.5C142.6,303.1,147.3,298.5,147.3,292.7z M31.6,255.1l126.5,0.7
	c5.7,0,10.4-4.6,10.5-10.3c0.1-5.8-4.6-10.5-10.3-10.5l-126.5-0.7c-0.1,0-0.1,0-0.1,0c-5.7,0-10.4,4.6-10.4,10.3
	C21.2,250.4,25.9,255.1,31.6,255.1z M52.9,207.7h126.5c5.7,0,10.4-4.7,10.4-10.4s-4.7-10.4-10.4-10.4H52.9
	c-5.7,0-10.4,4.7-10.4,10.4S47.1,207.7,52.9,207.7z M508.1,193.7L508.1,193.7l-74.6-61.8c-1.9-1.6-4.2-2.4-6.7-2.4H339V91.9
	c0-5.7-4.7-10.4-10.4-10.4H63.1c-5.7,0-10.4,4.7-10.4,10.4v76.3c0,5.7,4.7,10.4,10.4,10.4s10.4-4.7,10.4-10.4v-65.9h244.8v247.2
	h-85.5c-5.7,0-10.4,4.7-10.4,10.4s4.7,10.4,10.4,10.4h127.3c5.7,0,10.4-4.7,10.4-10.4s-4.7-10.4-10.4-10.4h-21V150.3h84l68,56.3
	l-0.7,142.7h-10.8c-5.7,0-10.4,4.7-10.4,10.4s4.7,10.4,10.4,10.4h21.2c5.7,0,10.4-4.6,10.4-10.3l0.8-158.1
	C511.9,198.7,510.5,195.6,508.1,193.7z"/>
</svg>
