<?xml version="1.0" encoding="utf-8"?>
<!-- Generator: Adobe Illustrator 21.0.0, SVG Export Plug-In . SVG Version: 6.00 Build 0)  -->
<svg version="1.1" id="Слой_1" xmlns="http://www.w3.org/2000/svg" xmlns:xlink="http://www.w3.org/1999/xlink" x="0px" y="0px"
	 viewBox="0 0 497.4 497.4" style="enable-background:new 0 0 497.4 497.4;" xml:space="preserve">
<style type="text/css">
	.st0{fill:none;}
	.st1{fill:#8BC34A;}
	.st2{fill:#636363;}
</style>
<g>
	<title>background</title>
	<rect id="canvas_background" x="-1" y="-1" class="st0" width="499.4" height="499.4"/>
</g>
<g>
	<title>Layer 1</title>
	<polygon id="svg_2" class="st1" points="125.6,345.8 109.8,343.6 119.2,274.6 111,262 124.4,253.3 135.9,270.8 	"/>
	<polygon id="svg_4" class="st1" points="149.2,345.8 138.9,270.8 150.4,253.3 163.8,262 155.6,274.6 165,343.6 	"/>
	<g id="svg_5">
		<rect id="svg_7" x="427.4" y="409.7" class="st1" width="32" height="48"/>
	</g>
	<g id="svg_8">
		<rect id="svg_9" x="385.4" y="264.7" class="st1" width="80" height="16"/>
		<rect id="svg_10" x="385.4" y="296.7" class="st1" width="16" height="16"/>
		<rect id="svg_11" x="417.4" y="296.7" class="st1" width="48" height="16"/>
		<rect id="svg_12" x="321.4" y="336.7" class="st1" width="144" height="16"/>
		<rect id="svg_13" x="321.4" y="368.7" class="st1" width="144" height="16"/>
		<rect id="svg_14" x="321.4" y="408.7" class="st1" width="16" height="16"/>
		<rect id="svg_15" x="353.4" y="408.7" class="st1" width="48" height="16"/>
		<rect id="svg_16" x="321.4" y="440.7" class="st1" width="80" height="16"/>
	</g>
	<g id="svg_17">
		<path id="svg_18" class="st2" d="M46.2,160.7c4.7,5,10.9,8.2,17.6,9.4c1.6,3.9,3.9,7.5,7,10.6l31,31c4.5,4.5,10.6,7,17,7h29.4
			c6.4,0,12.4-2.5,17-7l31-30.9c3.1-3.1,5.4-6.7,7-10.6c6.7-1.2,12.9-4.4,17.6-9.4c6.1-6.4,9.2-14.9,8.7-23.7
			c-0.4-7.3-3.4-13.8-8-18.9V66.7c0-16-11.7-29.2-27-31.6C182.5,15,161.2,2.7,137.6,2.7c-50.9,0-92.2,41.4-92.2,92.2v23.1
			c-4.6,5.2-7.6,11.7-8,18.9C37,145.9,40.1,154.3,46.2,160.7L46.2,160.7z M53.4,137.8c0.3-5.2,3.4-9.8,8-12.6v27.2
			c-1.3-0.8-2.5-1.6-3.6-2.8C54.7,146.5,53.2,142.3,53.4,137.8L53.4,137.8z M184.7,169.4l-31,31c-1.5,1.5-3.5,2.3-5.7,2.3h-29.4
			c-2.1,0-4.2-0.9-5.7-2.3l-31-31c-3-3-4.7-7-4.7-11.3v-35.4h43.2c16.8,0,32.7-6.8,44.2-18.6l1.9,2.8c5.3,8,13.6,13.3,22.8,15.1
			v36.1C189.4,162.4,187.7,166.4,184.7,169.4L184.7,169.4z M209,149.7c-1.1,1.1-2.3,2-3.6,2.8v-27.2c4.6,2.7,7.7,7.3,8,12.6
			C213.6,142.3,212,146.5,209,149.7L209,149.7z M137.6,18.7c19,0,36.1,10.6,44.6,27.6l2.2,4.4h5c8.8,0,16,7.2,16,16v41.4
			c-3-0.8-6.1-1.4-9.4-1.4c-6.5,0-12.5-3.2-16.1-8.6l-14.5-21.8l-6.7,10c-8.5,12.8-22.8,20.4-38.2,20.4H70.7c-3.3,0-6.4,0.6-9.4,1.4
			V94.9C61.4,52.9,95.6,18.7,137.6,18.7L137.6,18.7z"/>
		<path id="svg_19" class="st2" d="M221.5,237.4l-40.1-16.1v-2.6h-16v8.5l-0.4-0.1l-6,25.1l-16.8-21h-17.5l-16.8,21l-6-25.1
			l-0.4,0.1v-8.5h-16v2.6l-39.7,15.9c-20.1,7-34.8,24.8-38.3,46.5l-11.4,71h274.8l-11.4-71C255.9,262,241.2,244.2,221.5,237.4
			L221.5,237.4z M224.3,338.7l-4.2-44l-15.9,1.5l4.1,42.4H58.5l4.1-42.4l-15.9-1.5l-4.2,44H14.8l8.4-52.5
			c2.5-15.8,13.2-28.8,28.1-34l36.6-14.7l12,50.1l32.4-40.5h2.2l32.4,40.5l12-50.1l36.9,14.8c14.6,5,25.2,18,27.7,33.9l8.4,52.5
			H224.3z"/>
		<path id="svg_20" class="st2" d="M285.4,498.7h208v-272h-208V498.7z M301.4,242.7h176v240h-176V242.7z"/>
	</g>
	<g id="svg_26">
	</g>
	<g id="svg_27">
	</g>
	<g id="svg_28">
	</g>
	<g id="svg_29">
	</g>
	<g id="svg_30">
	</g>
	<g id="svg_31">
	</g>
	<g id="svg_32">
	</g>
	<g id="svg_33">
	</g>
	<g id="svg_34">
	</g>
	<g id="svg_35">
	</g>
	<g id="svg_36">
	</g>
	<g id="svg_37">
	</g>
	<g id="svg_38">
	</g>
	<g id="svg_39">
	</g>
	<g id="svg_40">
	</g>
	<path id="svg_41" class="st1" d="M381.9,210.9c54.1,0,98-43.9,98-98s-43.9-98-98-98c-54.1,0-98,43.9-98,98S327.8,210.9,381.9,210.9
		z M316.4,97.1l23.9-23.8l41.7,41.7l41.7-41.7l23.8,23.8l-65.6,65.6L316.4,97.1L316.4,97.1z"/>
</g>
</svg>
