<?xml version="1.0" encoding="iso-8859-1"?>
<!-- Generator: Adobe Illustrator 19.0.0, SVG Export Plug-In . SVG Version: 6.00 Build 0)  -->
<svg version="1.1" id="Capa_1" xmlns="http://www.w3.org/2000/svg" xmlns:xlink="http://www.w3.org/1999/xlink" x="0px" y="0px"
	 viewBox="0 0 512 512" style="enable-background:new 0 0 512 512;" xml:space="preserve">
<path style="fill:#FFF082;" d="M402.286,235.682c0-86.318-74.76-155.173-163.063-145.35c-68.407,7.61-123.074,63.87-128.954,132.447
	c-5.131,59.837,25.849,112.808,73.509,139.899c14.205,8.074,23.46,22.658,23.46,38.997v61.563c0,8.977,7.277,16.254,16.254,16.254
	h65.016c8.977,0,16.254-7.277,16.254-16.254v-60.271c0-17.047,9.615-32.263,24.374-40.793
	C372.841,336.917,402.286,289.799,402.286,235.682z"/>
<circle style="fill:#FFFFFF;" cx="256" cy="235.68" r="105.65"/>
<path style="fill:#FAD7A5;" d="M342.344,327.316l-44.185-20.456c-5.87-2.718-9.653-8.781-9.653-15.472v-31.325h-65.015v31.325
	c0,6.69-3.783,12.753-9.652,15.471l-44.186,20.456c-6.316,2.924-11.364,7.822-14.736,13.774c8.688,8.3,18.336,15.606,28.859,21.587
	c14.205,8.074,23.46,22.658,23.46,38.997v61.564c0,8.977,7.277,16.254,16.254,16.254h65.016c8.977,0,16.254-7.277,16.254-16.254
	v-60.271c0-17.047,9.615-32.263,24.374-40.793c10.172-5.878,19.53-12.984,27.966-21.044
	C353.73,335.161,348.675,330.247,342.344,327.316z"/>
<path style="fill:#FFC850;" d="M342.344,327.316l-20.171-9.338c-18.114,14.584-41.108,23.355-66.174,23.355
	s-48.06-8.771-66.174-23.356l-20.172,9.339c-6.316,2.924-11.364,7.822-14.736,13.774c8.72,8.331,18.409,15.661,28.977,21.654
	c14.172,8.037,23.342,22.638,23.342,38.93v61.564c0,8.977,7.277,16.254,16.254,16.254h65.016c8.977,0,16.254-7.277,16.254-16.254
	v-60.45c0-16.967,9.597-32.088,24.292-40.567c10.204-5.887,19.589-13.009,28.047-21.09
	C353.73,335.161,348.675,330.247,342.344,327.316z"/>
<path style="fill:#ECB24A;" d="M239.746,463.238v-49.449c0-14.521-8.204-27.796-21.192-34.29l-39.676-19.838
	c1.797,1.117,3.56,2.285,5.421,3.307c14.48,7.959,22.94,23.712,22.94,40.235v60.034c0,8.977,7.277,16.254,16.254,16.254H256
	C247.023,479.492,239.746,472.215,239.746,463.238z"/>
<path style="fill:#F0C891;" d="M223.492,260.064v31.325c0,3.101-0.885,6.027-2.341,8.587c10.366,5.641,22.24,8.849,34.849,8.849
	s24.482-3.207,34.848-8.848c-1.457-2.561-2.341-5.488-2.341-8.589v-31.325L223.492,260.064z"/>
<path style="fill:#FFE1B4;" d="M256,292.571L256,292.571c-31.419,0-56.889-25.47-56.889-56.889V186.92h113.778v48.762
	C312.889,267.101,287.419,292.571,256,292.571z"/>
<path style="fill:#FAD7A5;" d="M231.619,235.683v-48.762h-32.508v48.762c0,31.419,25.47,56.889,56.889,56.889
	c5.652,0,11.101-0.852,16.254-2.387C248.76,283.187,231.619,261.449,231.619,235.683z"/>
<path style="fill:#AF876E;" d="M264.127,146.286h-16.254c-31.419,0-56.889,25.47-56.889,56.889v13.001
	c0,6.023,6.39,10.112,11.717,7.302c8.245-4.349,17.915-12.462,24.414-21.214c2.624-3.535,7.671-4.058,11.199-1.426
	c25.788,19.244,61.707,14.82,76.228,11.952c3.784-0.747,6.473-4.102,6.473-7.959v-1.657
	C321.016,171.756,295.546,146.286,264.127,146.286z"/>
<path style="fill:#A07B64;" d="M202.701,223.478c8.245-4.349,17.915-12.462,24.414-21.214c0.995-1.34,2.381-2.104,3.857-2.57
	c-11.49-15.994-12.273-33.822-10.846-46.159c-17.379,9.736-29.142,28.303-29.142,49.64v13
	C190.984,222.198,197.374,226.287,202.701,223.478z"/>
<g>
	<path style="fill:#FFF082;" d="M256,65.016c-4.492,0-8.127-3.639-8.127-8.127V8.127C247.873,3.639,251.508,0,256,0
		s8.127,3.639,8.127,8.127v48.762C264.127,61.377,260.492,65.016,256,65.016z"/>
	<path style="fill:#FFF082;" d="M483.556,243.81h-48.762c-4.492,0-8.127-3.635-8.127-8.127s3.635-8.127,8.127-8.127h48.762
		c4.492,0,8.127,3.635,8.127,8.127S488.048,243.81,483.556,243.81z"/>
	<path style="fill:#FFF082;" d="M77.206,243.81H28.444c-4.492,0-8.127-3.635-8.127-8.127s3.635-8.127,8.127-8.127h48.762
		c4.492,0,8.127,3.635,8.127,8.127S81.698,243.81,77.206,243.81z"/>
	<path style="fill:#FFF082;" d="M382.429,117.385c-2.079,0-4.159-0.794-5.746-2.381c-3.175-3.175-3.175-8.317,0-11.492l34.476-34.48
		c3.175-3.175,8.317-3.175,11.492,0c3.175,3.175,3.175,8.317,0,11.492l-34.476,34.48
		C386.587,116.591,384.508,117.385,382.429,117.385z"/>
	<path style="fill:#FFF082;" d="M95.095,404.714c-2.079,0-4.159-0.794-5.746-2.381c-3.175-3.175-3.175-8.317,0-11.492l34.476-34.476
		c3.175-3.175,8.317-3.175,11.492,0c3.175,3.175,3.175,8.317,0,11.492l-34.476,34.476C99.254,403.921,97.175,404.714,95.095,404.714
		z"/>
	<path style="fill:#FFF082;" d="M416.905,404.714c-2.079,0-4.159-0.794-5.746-2.381l-34.476-34.476
		c-3.175-3.175-3.175-8.317,0-11.492c3.175-3.175,8.317-3.175,11.492,0l34.476,34.476c3.175,3.175,3.175,8.317,0,11.492
		C421.064,403.921,418.984,404.714,416.905,404.714z"/>
	<path style="fill:#FFF082;" d="M129.571,117.385c-2.079,0-4.159-0.794-5.746-2.381l-34.476-34.48
		c-3.175-3.175-3.175-8.317,0-11.492c3.175-3.175,8.317-3.175,11.492,0l34.476,34.48c3.175,3.175,3.175,8.317,0,11.492
		C133.73,116.591,131.651,117.385,129.571,117.385z"/>
</g>
<path style="fill:#9C969E;" d="M231.619,463.238v32.508c0,8.977,7.277,16.254,16.254,16.254h16.254
	c8.977,0,16.254-7.277,16.254-16.254v-32.508H231.619z"/>
<path style="fill:#C9C6CA;" d="M207.238,414.476v48.762c0,8.977,7.277,16.254,16.254,16.254h65.016
	c8.977,0,16.254-7.277,16.254-16.254v-48.762H207.238z"/>
<path style="fill:#AEA8AF;" d="M280.381,438.857h-40.635v-24.381h-32.508v48.762c0,8.977,7.277,16.254,16.254,16.254H256
	c-8.977,0-16.254-7.277-16.254-16.254v-8.127h40.635c4.492,0,8.127-3.635,8.127-8.127S284.873,438.857,280.381,438.857z"/>
<g>
</g>
<g>
</g>
<g>
</g>
<g>
</g>
<g>
</g>
<g>
</g>
<g>
</g>
<g>
</g>
<g>
</g>
<g>
</g>
<g>
</g>
<g>
</g>
<g>
</g>
<g>
</g>
<g>
</g>
</svg>
