<?xml version="1.0" encoding="utf-8"?>
<!-- Generator: Adobe Illustrator 21.0.0, SVG Export Plug-In . SVG Version: 6.00 Build 0)  -->
<svg version="1.1" id="Слой_1" xmlns="http://www.w3.org/2000/svg" xmlns:xlink="http://www.w3.org/1999/xlink" x="0px" y="0px"
	 viewBox="0 0 496 496" style="enable-background:new 0 0 496 496;" xml:space="preserve">
<style type="text/css">
	.st0{fill:none;}
	.st1{fill:#636363;}
	.st2{fill:#8BC34A;}
</style>
<g>
	<title>background</title>
	<rect id="canvas_background" x="-1" y="-1" class="st0" width="498" height="498"/>
</g>
<g>
	<title>Layer 1</title>
	<g id="svg_5">
		<path id="svg_6" class="st1" d="M403.7,304h-2.5c-7.7,0-15.1,2.4-21.3,6.9l-10.9,8c-6.8-9.2-17.6-14.9-29.2-14.9h-2.5
			c-7.7,0-15.1,2.4-21.3,6.9L237.4,368H216v16h90.6l82.7-60.1c3.5-2.5,7.6-3.9,11.9-3.9h2.5c11.2,0,20.3,9.1,20.3,20.3
			c0,5.4-2.1,10.5-5.9,14.3l-77,77c-10.6,10.6-24.6,16.4-39.6,16.4H141.2l-40,32H16v-83.8L90.5,344H164c11,0,20,9,20,20s-9,20-20,20
			h-60v16h60c19.8,0,36-16.2,36-36s-16.2-36-36-36H85.5L0,387.8V496h106.8l40-32h154.7c19.2,0,37.3-7.5,50.9-21.1l77-77
			c6.8-6.9,10.6-16,10.6-25.7C440,320.3,423.7,304,403.7,304L403.7,304z M301.4,368h-36.8l60.7-44.1c3.5-2.5,7.6-3.9,11.9-3.9h2.5
			c6.6,0,12.4,3.2,16.2,8.4L301.4,368z"/>
		<path id="svg_7" class="st1" d="M389.2,0l-40,32H194.5c-19.2,0-37.3,7.5-50.9,21.1l-77,77c-6.8,6.9-10.6,16-10.6,25.7
			c0,20,16.3,36.3,36.3,36.3h2.5c7.7,0,15.1-2.4,21.3-6.9l10.9-8c6.8,9.2,17.6,14.9,29.2,14.9h2.5c7.7,0,15.1-2.4,21.3-6.9
			l78.5-57.1H280v-16h-90.6l-82.7,60.1c-3.5,2.5-7.6,3.9-11.9,3.9h-2.5c-11.2,0-20.3-9.1-20.3-20.3c0-5.4,2.1-10.5,5.9-14.3l77-77
			C165.5,53.8,179.6,48,194.5,48h160.3l40-32H480v83.8L405.5,152H332c-11,0-20-9-20-20s9-20,20-20h60V96h-60c-19.8,0-36,16.2-36,36
			s16.2,36,36,36h78.5l85.5-59.8V0H389.2L389.2,0z M194.6,128h36.8l-60.7,44.1c-3.5,2.5-7.6,3.9-11.9,3.9h-2.5
			c-6.6,0-12.4-3.2-16.2-8.4L194.6,128z"/>
		<path id="svg_8" class="st1" d="M342.5,291.3c6.3-13.8,9.5-28.4,9.5-43.3c0-57.3-46.7-104-104-104v16c48.5,0,88,39.5,88,88
			c0,12.7-2.7,25-8.1,36.7L342.5,291.3L342.5,291.3z"/>
		<path id="svg_9" class="st1" d="M153.5,204.7c-6.3,13.8-9.5,28.4-9.5,43.3c0,57.3,46.7,104,104,104v-16c-48.5,0-88-39.5-88-88
			c0-12.7,2.7-25,8.1-36.7L153.5,204.7z"/>
	</g>
	<g id="svg_10">
	</g>
	<g id="svg_11">
	</g>
	<g id="svg_12">
	</g>
	<g id="svg_13">
	</g>
	<g id="svg_14">
	</g>
	<g id="svg_15">
	</g>
	<g id="svg_16">
	</g>
	<g id="svg_17">
	</g>
	<g id="svg_18">
	</g>
	<g id="svg_19">
	</g>
	<g id="svg_20">
	</g>
	<g id="svg_21">
	</g>
	<g id="svg_22">
	</g>
	<g id="svg_23">
	</g>
	<g id="svg_24">
	</g>
	<path id="svg_25" class="st2" d="M247.7,186.1c-33.1,0-60,26.9-60,60c0,33.1,26.9,60,60,60c33.1,0,60-26.9,60-60
		C307.7,213,280.8,186.1,247.7,186.1z M252.9,278.6v8.5h-8.1v-8.4c-13.3-1.8-19.1-12.7-19.1-12.7l8.3-6.9c0,0,5.3,9.2,14.8,9.2
		c5.3,0,9.3-2.8,9.3-7.6c0-11.3-30.3-9.9-30.3-30.8c0-9.1,7.2-15.6,17.1-17.2v-8.5h8.1v8.4c6.9,0.9,15.1,4.5,15.1,12.4v6h-10.7v-2.9
		c0-3-3.8-5-8.1-5c-5.4,0-9.4,2.7-9.4,6.5c0,11.5,30.3,8.7,30.3,30.6C270,269.3,263.3,277.1,252.9,278.6L252.9,278.6L252.9,278.6
		L252.9,278.6z"/>
</g>
</svg>
