<?xml version="1.0" encoding="utf-8"?>
<!-- Generator: Adobe Illustrator 21.0.0, SVG Export Plug-In . SVG Version: 6.00 Build 0)  -->
<svg version="1.1" id="Слой_1" xmlns="http://www.w3.org/2000/svg" xmlns:xlink="http://www.w3.org/1999/xlink" x="0px" y="0px"
	 viewBox="0 0 496 496" style="enable-background:new 0 0 496 496;" xml:space="preserve">
<style type="text/css">
	.st0{fill:none;}
	.st1{fill:#636363;}
	.st2{fill:#8BC34A;}
</style>
<g>
	<title>background</title>
	<rect id="canvas_background" x="-1" y="-1" class="st0" width="498" height="498"/>
</g>
<g>
	<title>Layer 1</title>
	<g id="svg_2">
		<rect id="svg_3" x="32" y="32" class="st1" width="16" height="16"/>
		<rect id="svg_4" x="64" y="32" class="st1" width="16" height="16"/>
		<rect id="svg_5" x="96" y="32" class="st1" width="16" height="16"/>
		<path id="svg_6" class="st1" d="M352,80H0V0h352V80z M16,64h320V16H16V64z"/>
	</g>
	<g id="svg_8">
		<path id="svg_9" class="st2" d="M464,208c0-44.1-35.9-80-80-80s-80,35.9-80,80s35.9,80,80,80S464,252.1,464,208z M320,208
			c0-35.3,28.7-64,64-64s64,28.7,64,64s-28.7,64-64,64S320,243.3,320,208z"/>
		<path id="svg_10" class="st2" d="M496,208c0-61.8-50.2-112-112-112s-112,50.2-112,112c0,50.6,33.8,93.5,80,107.3V336h-16v16h16v16
			h-16v16h16v80c0,17.6,14.4,32,32,32s32-14.4,32-32v-80h16v-16h-16v-16h16v-16h-16v-20.7C462.2,301.5,496,258.6,496,208z M288,208
			c0-52.9,43.1-96,96-96s96,43.1,96,96s-43.1,96-96,96S288,260.9,288,208z M400,464c0,8.8-7.2,16-16,16s-16-7.2-16-16v-80h32V464z
			 M400,368h-32v-16h32V368z M400,336h-32v-17.3c5.2,0.8,10.6,1.3,16,1.3s10.8-0.5,16-1.3V336z"/>
		<polygon id="svg_11" class="st1" points="16,96 0,96 0,384 320,384 320,368 16,368 		"/>
		<path id="svg_12" class="st1" d="M256,96H96v160h160V96z M240,240H112V112h128V240z"/>
		<rect id="svg_13" x="96" y="272" class="st1" width="160" height="16"/>
		<rect id="svg_14" x="128" y="304" class="st1" width="128" height="16"/>
		<rect id="svg_15" x="96" y="304" class="st1" width="16" height="16"/>
		<rect id="svg_16" x="240" y="336" class="st1" width="16" height="16"/>
		<rect id="svg_17" x="96" y="336" class="st1" width="128" height="16"/>
		<path id="svg_18" class="st2" d="M144,208c0-8.8,7.2-16,16-16h32c8.8,0,16,7.2,16,16v16h16v-16c0-14-9-25.7-21.5-30.1
			c3.5-5.1,5.5-11.3,5.5-17.9c0-17.6-14.4-32-32-32s-32,14.4-32,32c0,6.6,2,12.8,5.5,17.9C137,182.3,128,194,128,208v16h16V208z
			 M176,144c8.8,0,16,7.2,16,16s-7.2,16-16,16s-16-7.2-16-16S167.2,144,176,144z"/>
	</g>
	<g id="svg_19">
	</g>
	<g id="svg_20">
	</g>
	<g id="svg_21">
	</g>
	<g id="svg_22">
	</g>
	<g id="svg_23">
	</g>
	<g id="svg_24">
	</g>
	<g id="svg_25">
	</g>
	<g id="svg_26">
	</g>
	<g id="svg_27">
	</g>
	<g id="svg_28">
	</g>
	<g id="svg_29">
	</g>
	<g id="svg_30">
	</g>
	<g id="svg_31">
	</g>
	<g id="svg_32">
	</g>
	<g id="svg_33">
	</g>
</g>
</svg>
