<?xml version="1.0" encoding="iso-8859-1"?>
<!-- Generator: Adobe Illustrator 19.0.0, SVG Export Plug-In . SVG Version: 6.00 Build 0)  -->
<svg version="1.1" id="Capa_1" xmlns="http://www.w3.org/2000/svg" xmlns:xlink="http://www.w3.org/1999/xlink" x="0px" y="0px"
	 viewBox="0 0 512.001 512.001" style="enable-background:new 0 0 512.001 512.001;" xml:space="preserve">
<circle style="fill:#E6646E;" cx="243.51" cy="268.491" r="243.51"/>
<path style="fill:#DC4655;" d="M298.087,457.422c-134.486,0-243.508-109.022-243.508-243.508c0-53.311,17.18-102.585,46.239-142.689
	C39.755,115.471,0,187.319,0,268.493c0,134.486,109.022,243.508,243.508,243.508c81.174,0,153.023-39.756,197.268-100.819
	C400.673,440.242,351.399,457.422,298.087,457.422z"/>
<circle style="fill:#FFFFFF;" cx="243.51" cy="268.491" r="193.13"/>
<circle style="fill:#E6646E;" cx="243.51" cy="268.491" r="142.75"/>
<circle style="fill:#FFFFFF;" cx="243.51" cy="268.491" r="92.36"/>
<circle style="fill:#E6646E;" cx="243.51" cy="268.491" r="41.984"/>
<rect x="358.96" y="88.225" transform="matrix(-0.7071 -0.7071 0.7071 -0.7071 524.8474 506.6581)" style="fill:#5D5360;" width="16.792" height="112.809"/>
<path style="fill:#AEA8AF;" d="M279.555,220.572l-41.984,41.984c-3.28,3.28-3.28,8.594,0,11.874c1.64,1.64,3.788,2.46,5.937,2.46
	s4.297-0.82,5.937-2.46l41.984-41.984L279.555,220.572z"/>
<path style="fill:#9C969E;" d="M279.555,220.572l-23.925,23.925c1.428,2.424,3.054,4.741,5.093,6.78s4.356,3.665,6.78,5.093
	l23.925-23.925L279.555,220.572z"/>
<path style="fill:#6F6571;" d="M433.157,117.351h-30.109c-4.637,0-8.397-3.759-8.397-8.397V78.845c0-2.227,0.885-4.363,2.459-5.937
	l71.11-71.11c3.838-3.838,10.4-1.12,10.4,4.308v27.277h27.277c5.427,0,8.145,6.562,4.308,10.4l-71.109,71.109
	C437.52,116.466,435.384,117.351,433.157,117.351z"/>
<path style="fill:#FFC850;" d="M272.599,239.403L272.599,239.403c-6.531-6.531-6.531-17.219,0-23.75l35.625-35.625
	c6.531-6.531,17.219-6.531,23.75,0l0,0c6.531,6.531,6.531,17.219,0,23.75l-35.625,35.625
	C289.817,245.934,279.13,245.934,272.599,239.403z"/>
<path style="fill:#FFDC64;" d="M308.223,180.028l-35.624,35.624c-6.531,6.531-6.531,17.219,0,23.75l59.374-59.374
	C325.442,173.497,314.754,173.497,308.223,180.028z"/>
<path style="fill:#5D5360;" d="M478.619,6.105c0-5.427-6.562-8.146-10.4-4.308l-71.109,71.11c-1.575,1.575-2.459,3.711-2.459,5.937
	v30.109c0,2.319,0.94,4.418,2.459,5.937l81.509-81.509V6.105z"/>
<path style="fill:#EDEBED;" d="M54.928,226.869c-2.947,13.411-4.547,27.328-4.547,41.624c0,106.661,86.466,193.127,193.127,193.127
	c14.297,0,28.213-1.6,41.624-4.547C160.962,450.562,61.439,351.039,54.928,226.869z"/>
<g>
</g>
<g>
</g>
<g>
</g>
<g>
</g>
<g>
</g>
<g>
</g>
<g>
</g>
<g>
</g>
<g>
</g>
<g>
</g>
<g>
</g>
<g>
</g>
<g>
</g>
<g>
</g>
<g>
</g>
</svg>
