<?xml version="1.0" encoding="utf-8"?>
<!-- Generator: Adobe Illustrator 21.0.0, SVG Export Plug-In . SVG Version: 6.00 Build 0)  -->
<svg version="1.1" id="Capa_1" xmlns="http://www.w3.org/2000/svg" xmlns:xlink="http://www.w3.org/1999/xlink" x="0px" y="0px"
	 viewBox="0 0 512 512" style="enable-background:new 0 0 512 512;" xml:space="preserve">
<style type="text/css">
	.st0{fill:#636363;}
	.st1{fill:#2196F3;}
	.st2{fill:#403F3B;}
</style>
<path class="st0" d="M94.9,349H74v-27.7c0-4.8-3.2-9.2-7.9-10.4c-6.9-1.7-13.1,3.5-13.1,10.2v38.5c0,5.7,4.7,10.4,10.4,10.4h31.7
	c6.6,0,11.9-6.2,10.2-13.1C104.1,352.2,99.7,349,94.9,349z"/>
<path class="st1" d="M52.4,208h127.2c4.8,0,9.2-3.2,10.4-7.9c1.7-6.9-3.5-13.1-10.2-13.1H52.6c-4.8,0-9.2,3.2-10.4,7.9
	C40.5,201.8,45.8,208,52.4,208z"/>
<path class="st0" d="M164,336.7c-12.5,0-24.4,4.9-33.4,13.8c-9,9-14,20.6-14,33.2s4.9,24.2,14,33.2c9.1,8.9,20.9,13.8,33.4,13.8
	c25.6,0,46.5-21.1,46.5-46.9S189.6,336.7,164,336.7z M164,409.7c-14.4,0-26.5-11.9-26.5-26.1s12.1-26.1,26.5-26.1
	c14.2,0,25.6,11.7,25.6,26.1S178.2,409.7,164,409.7z"/>
<path class="st1" d="M147.7,290.9c-0.7-4.9-5.6-8.9-10.6-8.9c-22.4,0-105.5,0-126.9,0c-4.8,0-9.2,3.2-10.4,7.9
	C-1.9,296.8,3.3,303,10,303h127.4C143.6,303,148.7,297.5,147.7,290.9z"/>
<path class="st1" d="M31.6,255l126.5,0.7c5.7,0,10.4-4.6,10.5-10.3c0.1-5.8-4.6-10.5-10.3-10.5l-126.5-1h-0.1
	c-5.8,0-10.5,4.6-10.5,10.4C21.1,250.3,25.9,255,31.6,255z"/>
<path class="st2" d="M54.9,129.4c0-1.1-0.1-2.2-0.2-3.4H54C54.3,127.1,54.6,128.2,54.9,129.4z"/>
<path class="st0" d="M418.6,336.7c-12.5,0-24.4,4.9-33.4,13.8c-9,9-14,20.6-14,33.2s4.9,24.2,14,33.2c9.1,8.9,20.9,13.8,33.4,13.8
	c25.6,0,46.5-21.1,46.5-46.9S444.2,336.7,418.6,336.7z M418.6,409.7c-14.4,0-26.5-11.9-26.5-26.1s12.1-26.1,26.5-26.1
	c14.2,0,25.6,11.7,25.6,26.1S432.8,409.7,418.6,409.7z"/>
<path class="st0" d="M53,114.2c0.9,3.8,1.4,7.8,1.7,11.8H55h-0.3c0.1,1.1,0.1,2.2,0.2,3.4c3.3,13.4,4.9,29.4,14.1,37.6
	c1.2,1.2,2.4,2.2,3.7,3.2c0.2-0.8,0.3-1.6,0.3-2.5v-63.1c-5.9-3-12.5-5.6-20-7.7V114.2z"/>
<path class="st0" d="M508,193.3l-74.6-61.9c-1.9-1.6-4.2-2.4-6.7-2.4H339V91.4c0-5.7-4.7-10.4-10.4-10.4H63.1
	C57.6,81,53,85.6,53,91.1V97c7.5,2.1,14.1,4.7,20,7.7V102h245v247h-85.9c-4.8,0-9.2,3.2-10.4,7.9c-1.7,6.9,3.5,13.1,10.2,13.1h128
	c4.8,0,9.2-3.2,10.4-7.9c1.7-6.9-3.5-13.1-10.2-13.1H339V150h84l68,56.2L490.3,349h-10.5c-4.8,0-9.3,3.2-10.4,7.9
	c-1.7,6.9,3.5,13.1,10.1,13.1h21.1c5.7,0,10.4-4.6,10.4-10.4l0.8-158.2C511.7,198.3,510.4,195.3,508,193.3z"/>
<path class="st1" d="M462.6,208.9l-31.5-28.2c-1.9-1.8-4.4-2.7-7-2.7h-53.7c-5.7,0-10.4,4.7-10.4,10.4v85.1
	c0,5.7,4.7,10.4,10.4,10.4h85.1c5.7,0,10.4-4.7,10.4-10.4v-57C466,213.6,464.7,210.8,462.6,208.9z M445,263h-64v-65h39l25,22.6V263z
	"/>
<path class="st0" d="M54.9,129.4c0.1,1.9,0.1,3.8,0.1,5.6C55,133.1,55,131.3,54.9,129.4c-0.3-1.1-0.6-2.3-0.9-3.4h0.7
	c-0.3-4-0.8-7.9-1.7-11.8v53.5c0,4.9,3.4,9.4,8.3,10.3c5.4,0.9,10.2-2.7,11.4-7.8c-1.3-1-2.5-2-3.7-3.2
	C59.8,158.7,58.2,142.8,54.9,129.4z"/>
</svg>
