<?xml version="1.0" encoding="utf-8"?>
<!-- Generator: Adobe Illustrator 21.0.0, SVG Export Plug-In . SVG Version: 6.00 Build 0)  -->
<svg version="1.1" id="Capa_1" xmlns="http://www.w3.org/2000/svg" xmlns:xlink="http://www.w3.org/1999/xlink" x="0px" y="0px"
	 viewBox="0 0 512 512" style="enable-background:new 0 0 512 512;" xml:space="preserve">
<style type="text/css">
	.st0{fill:#636363;}
	.st1{fill:#2196F3;}
</style>
<g>
	<g>
		<path class="st0" d="M236,242.7v0.3h-30c-8,0-15.5,3.1-21.2,8.8S176,265,176,273c0,16.1,12.7,29.3,28.6,30l-18.1,140.9v0.1
			c-0.4,2.7-0.5,5.4-0.5,8c0,33.1,26.9,60,60,60c33.1,0,60-26.9,60-60c0-2.7-0.2-5.4-0.5-8l-18.1-141c7.5-0.3,14.5-3.4,19.8-8.8
			c5.7-5.7,8.8-13.2,8.8-21.2c0-16.5-13.5-30-30-30h-30v-0.2C249.3,243.2,242.7,243.3,236,242.7z M246,492c-22.1,0-40-17.9-40-40
			c0-1.8,0.1-3.6,0.4-5.5L224.8,303h42.4l18.4,143.5c0.2,1.8,0.4,3.7,0.4,5.5C286,474.1,268.1,492,246,492z M286,263
			c5.5,0,10,4.5,10,10c0,2.7-1,5.2-2.9,7.1c-1.9,1.9-4.4,2.9-7.1,2.9h-10h-60h-10c-5.5,0-10-4.5-10-10c0-2.7,1-5.2,2.9-7.1
			c1.9-1.9,4.4-2.9,7.1-2.9H286z"/>
		<path class="st1" d="M456,60h-10V30c0-16.5-13.5-30-30-30H76C59.5,0,46,13.5,46,30v30H36c-5.5,0-10,4.5-10,10s4.5,10,10,10h10v33
			c0,16.5,13.5,30,30,30h340c16.5,0,30-13.5,30-30V80h10c5.5,0,10,4.5,10,10v65.8c0,5-3.6,9.1-8.5,9.9c-0.1,0-0.2,0-0.2,0l-196,34.8
			c-14.7,2.3-25.3,14.8-25.3,29.6v12.6c6.7,0.6,13.3,0.5,20,0.2v-12.6c0-5,3.6-9.1,8.5-9.9c0.1,0,0.2,0,0.2,0l196-34.8
			c14.7-2.3,25.3-14.8,25.3-29.6V90C486,73.5,472.5,60,456,60z M426,113c0,5.5-4.5,10-10,10H76c-5.5,0-10-4.5-10-10V30
			c0-5.5,4.5-10,10-10h340c5.5,0,10,4.5,10,10V113z"/>
	</g>
</g>
<g>
	<g>
		<path class="st1" d="M376,32H116c-5.5,0-10,4.5-10,10s4.5,10,10,10h260c5.5,0,10-4.5,10-10S381.5,32,376,32z"/>
	</g>
</g>
</svg>
