<?xml version="1.0" encoding="utf-8"?>
<!-- Generator: Adobe Illustrator 21.0.0, SVG Export Plug-In . SVG Version: 6.00 Build 0)  -->
<svg version="1.1" id="Layer_1" xmlns="http://www.w3.org/2000/svg" xmlns:xlink="http://www.w3.org/1999/xlink" x="0px" y="0px"
	 viewBox="0 0 512 512" style="enable-background:new 0 0 512 512;" xml:space="preserve">
<style type="text/css">
	.st0{fill:#2196F3;}
	.st1{fill:#636363;}
</style>
<g>
	<g>
		<g>
			<path class="st0" d="M379.9,193.5c11.9,0,22.1,7.8,25.7,18.5c5.4,0,11.6,0,17.1,0c-4-20-21.7-35.1-42.8-35.1
				c-21.1,0-38.8,15.1-42.8,35.1c5.5,0,11.5,0,17.1,0C357.8,201.3,367.9,193.5,379.9,193.5z"/>
			<path class="st1" d="M486,247.7h-45.7l0.6-18.8h9.7c4.6,0,8.3-3.7,8.3-8.3s-3.7-8.3-8.3-8.3h-27.9c0-0.1,0-0.2-0.1-0.3
				c-5.5,0-11.7,0-17.1,0c0,0.1,0.1,0.2,0.1,0.3H354c0-0.1,0.1-0.2,0.1-0.3c-5.6,0-11.7,0-17.1,0c0,0.1,0,0.2-0.1,0.3H137.3
				l288.6-63.8c4.5-1,7.3-5.4,6.3-9.9s-5.4-7.3-9.9-6.3L292.2,161l-2-9.2c-3.1-14-17-22.9-31-19.8l-51.8,11.5
				c-14,3.1-22.9,17-19.8,31l2,9.2L59.5,212.5c-4.5,1-7.3,5.4-6.3,9.9c0.8,3.5,3.7,6,7.1,6.4c0.3,0,0.5,0.1,0.8,0.1
				c0.1,0,0.1,0,0.2,0c0,0,0,0,0.1,0l0,0H71l0.6,18.8H26c-14.3,0-26,11.7-26,26c0,14.3,11.7,26,26,26h47.4l5.1,152.4
				c0.8,23.7,20,42.2,43.7,42.2h267.7c23.7,0,42.9-18.5,43.7-42.2l5.1-152.4H486c14.3,0,26-11.7,26-26
				C512,259.4,500.3,247.7,486,247.7z M210.9,159.8l51.8-11.5c5.1-1.1,10.1,2.1,11.2,7.2l2,9.2l-70.2,15.5l-2-9.2
				C202.7,165.9,205.9,160.9,210.9,159.8z M26,283.1c-5.2,0-9.4-4.2-9.4-9.4s4.2-9.4,9.4-9.4h46.2l0.6,18.8H26z M389.9,477.7H122.1
				c-12.1,0-22.3-7.8-25.8-18.8h319.3C412.2,469.9,402,477.7,389.9,477.7z M417.2,442.3H94.8l-7.1-213.4h336.7L417.2,442.3z
				 M486,283.1h-46.9l0.6-18.8H486c5.2,0,9.4,4.2,9.4,9.4S491.2,283.1,486,283.1z"/>
			<path class="st0" d="M433.5,176.4c0,14.3,11.7,26,26,26s26-11.7,26-26s-11.7-26-26-26S433.5,162.1,433.5,176.4z M459.5,167
				c5.2,0,9.4,4.2,9.4,9.4s-4.2,9.4-9.4,9.4s-9.4-4.2-9.4-9.4S454.3,167,459.5,167z"/>
			<path class="st0" d="M415.2,113.9c14.3,0,26-11.7,26-26s-11.7-26-26-26s-26,11.7-26,26S400.9,113.9,415.2,113.9z M415.2,78.5
				c5.2,0,9.4,4.2,9.4,9.4c0,5.2-4.2,9.4-9.4,9.4s-9.4-4.2-9.4-9.4C405.8,82.7,410.1,78.5,415.2,78.5z"/>
			<path class="st0" d="M344.5,130.4c8.8,0,16-7.2,16-16s-7.2-16-16-16s-16,7.2-16,16S335.7,130.4,344.5,130.4z"/>
			<path class="st0" d="M375.4,43.1c7,0,12.7-5.7,12.7-12.7s-5.7-12.7-12.7-12.7s-12.7,5.7-12.7,12.7S368.4,43.1,375.4,43.1z"/>
		</g>
	</g>
</g>
</svg>
