<?xml version="1.0" encoding="utf-8"?>
<!-- Generator: Adobe Illustrator 21.0.0, SVG Export Plug-In . SVG Version: 6.00 Build 0)  -->
<svg version="1.1" id="Layer_1" xmlns="http://www.w3.org/2000/svg" xmlns:xlink="http://www.w3.org/1999/xlink" x="0px" y="0px"
	 viewBox="0 0 512 512" style="enable-background:new 0 0 512 512;" xml:space="preserve">
<style type="text/css">
	.st0{fill:#636363;}
	.st1{fill:#2196F3;}
</style>
<g transform="translate(1 1)">
	<g>
		<path class="st0" d="M224,200c0.1-0.2,0.2-0.5,0.4-0.7l-0.4,0.4C224,199.8,224,199.9,224,200z"/>
		<path class="st1" d="M207.2,157.9c-31.5-31.5-53.6-61.2-70.6-94.4c0,0,0,0,0-0.1c-0.9-16.8-7.6-32.5-19.7-44.6
			C102.3,4.4,81.8-2.4,61.4-0.7c0,0,0,0-0.1,0c-2.6,0.9-5.1,2.6-5.9,4.3c-1.7,2.6-1.7,6,0,8.5l23.8,42.6c0,0.1,0,0.1,0,0.2
			c-5.1,11-17,17.8-28.9,17c-0.1,0-0.1,0-0.1-0.1l-24.7-41c-0.9-2.6-4.3-4.3-6.8-4.3c-2.6-0.9-5.1,0.9-6.8,3.4
			c-20.5,30.7-12.8,71.6,17.9,93c10.6,7.5,22.5,11.7,34.5,12.6c0.1,0,0.1,0,0.2,0.1c33.4,17.1,63.3,39.3,94.9,70.9l31.1,30.4
			c0,0,0.1,0.1,0,0.1c2.8-4.8,7.4-8.3,11-12.3h-0.1l-30.1-30.1c-25.5-26.3-51-46.8-78.2-62.9c-0.1-0.1-0.1-0.3,0-0.3
			c4.2-1.7,9.2-4.2,13.3-6.7c12.7-8.5,21.2-19.4,26.3-32.9c0.1-0.1,0.2-0.2,0.3,0c16.2,27.2,36.6,52.7,62.1,78.1l29.2,29.2l0,0h0.1
			c2.9-5.2,7.4-8.1,11.1-12.6L207.2,157.9z M119.6,66.2c-0.2,0.7-0.3,1.3-0.3,2.1c0,4-0.5,7.8-1.4,11.5
			c-3.2,12.3-10.9,23.1-21.7,30.3c-17.1,11.1-40.1,11.1-57.1-0.9C21.4,96.6,13.7,73.8,19.4,53.4c0-0.2,0.3-0.2,0.3,0l17.7,30.3
			c1.7,2.6,4.3,4.3,6.8,4.3h4.3c19.6,0.9,37.5-9.4,46.1-26.4l0,0l1.7-4.2l0,0c1.7-2.6,1.7-5.1,0-7.7L77.7,17.5
			c-0.1-0.1,0-0.3,0.2-0.3C88,19,97.3,24.1,104.8,31.7C113.6,41.2,119.2,53.2,119.6,66.2L119.6,66.2z"/>
		<path class="st0" d="M224.5,199.1c0,0,0-0.1,0.1-0.1h-0.1C224.4,199.1,224.5,199.1,224.5,199.1z"/>
		<path class="st0" d="M285.8,259.1L285.8,259.1L285.8,259.1z"/>
		<path class="st0" d="M190.5,237.1c-0.2,0.3-0.3,0.5-0.4,0.8C190.2,237.6,190.4,237.4,190.5,237.1z"/>
		<path class="st0" d="M267.8,150.7L267.8,150.7l8.7,8.5C273.7,156.2,270.8,153.4,267.8,150.7z"/>
		<path class="st0" d="M502.8,180.3l-29.9-29.9c-3.4-3.4-7.7-5.1-11.9-5.1s-8.4,2.5-11.8,5c-0.1,0.1-0.2,0-0.2,0
			c-6.7-5.9-6.7-7.6-6.7-14.4c0-3.4,0-7.7-1.7-12.8c-1.7-11.9-7.7-23.9-17.1-33.3L393.1,59c-17.9-17.9-26.4-26.4-49.5-36.7
			c-49.5-23-99.8-18.8-173.1,14.5c-4.3,1.7-6,5.1-5.1,9.4c0.9,4.3,4.3,6.8,8.5,6.8H185c37.5,0,57.1,0,91.3,34.1
			c14.9,14.9,15.4,37.8,2,54.6l-0.1,0.1c-1.8,0.3-3.1,1.1-4.5,2.4l-5.9,6.5c3,2.7,5.9,5.5,8.7,8.5l53,50.8c0.1-0.1,0.1-0.1,0.2,0
			c6.3,3.5,13,5.8,19.7,6.8c5.1,0.9,8.5,0.9,11.9,0.9c6.8,0,8.5,0,15.2,5.8c0.1,0.1,0.1,0.2,0,0.3c-3.3,2.6-4.9,6.8-4.9,11
			c0,4.3,1.7,9.4,5.1,12.8l29.8,29.8c4.3,5.1,11.1,7.7,17.9,7.7s13.6-2.6,17.9-8.5l60.5-60.5c5.1-4.3,7.7-11.1,7.7-17.9
			S507.9,185.4,502.8,180.3z M491.3,204l-60.6,60.6c-3.4,3.4-8.5,3.4-11.9,0L389,234.8c-0.1-0.1-0.1-0.2,0-0.3
			c3.3-2.6,4.9-6.8,4.1-11.8c0-4.3-1.7-9.4-5.1-12.8c-10.2-10.2-17.1-11.1-26.4-11.1c-2.6,0-6,0-10.2-0.9
			c-9.4-0.9-17.1-5.1-23.9-11.9l-36.6-36.6c-0.1-0.1-0.1-0.2,0-0.2c18.6-23,16.9-55.3-3.5-75.7c-27-26.1-47.3-34.8-69.9-37.4
			c-0.2,0-0.2-0.3,0-0.4c48.2-15.1,83.8-14.1,119.4,2c20.5,8.5,27.3,15.4,45.2,33.3l30.7,30.7c6.8,6.8,11.1,15.3,11.9,23.9
			c0.9,4.3,0.9,7.7,0.9,10.2c0,9.4,0.9,16.2,11.1,26.4c3.4,3.4,8.5,5.1,12.8,5.1c5,0,9.2-1.7,11.8-5c0.1-0.1,0.2-0.1,0.3,0
			l29.7,29.7c1.7,1.7,2.6,3.4,2.6,6C493.9,200.6,493,202.3,491.3,204z"/>
		<path class="st0" d="M280.8,238.7C280.8,238.7,280.8,238.7,280.8,238.7c-1.1,0.4-2,1.1-2.8,1.9L243.9,279c-1,1-1.6,2.1-2.1,3.2
			c0,0,0,0,0,0.1L57.9,488c-6.8,6.8-17.9,7.7-24.7,0.8l-11.9-11.1c-3.4-3.4-5.1-7.7-5.1-11.9c0-5.1,1.7-9.4,6-13.6l4.7-5.3
			c0.1-0.1,0.2-0.1,0.3,0l12,12.1c1.7,1.7,3.4,2.6,6,2.6c2.6,0,4.3-0.9,6-2.6c3.4-3.4,3.4-8.5,0-11.9l-12.8-12.8
			c-0.1-0.1-0.1-0.2,0-0.3l11-12.3c0.1-0.1,0.2-0.1,0.3,0L63,435.1c1.7,1.7,3.4,2.6,6,2.6s4.3-0.9,6-2.6c3.4-3.4,3.4-8.5,0-11.9
			L60.9,409c-0.1-0.1-0.1-0.2,0-0.3L280,163.6c0.1-0.1,0.2-0.1,0.3,0l1.5,1.5c-1.7-2-3.5-4-5.3-5.9l-8.7-8.4l-31.9,35.5
			c-0.1,0.1-0.2,0.1-0.3,0c-3.7,4.5-8.2,7.4-11.1,12.6c0.1,0,0.3,0,0.5,0c-0.2,0-0.4,0-0.5,0c0,0,0,0.1-0.1,0.1v0.1l-0.1,0.1
			c-0.1,0.2-0.2,0.4-0.4,0.7c0-0.1,0-0.2,0-0.3l-22.3,24.9l-0.1,0.1c-3.6,4-8.3,7.5-11,12.3v0.1v0.1c-0.1,0.3-0.3,0.5-0.4,0.8
			c0.1-0.3,0.2-0.5,0.4-0.8L9.3,439.4C2.5,446.2-0.9,455.6-0.9,465c0,9.4,3.4,17.9,10.2,24.7l11.9,11.9c6.8,6,15.3,9.4,23.9,9.4
			c8.5,0,17.9-3.4,24.7-10.2l181-202.6c0,0,0,0,0.1,0c3.7-4.9,8.7-8.4,12.1-12.8l-0.3-0.3c-0.1-0.1-0.1-0.2,0-0.3l23-25.8
			c3.7-4.1,8.5-7,10.7-11.8c0-0.1,0-0.1,0-0.2l0.1-0.1c0.1-0.3,0.2-0.6,0.4-0.9c-0.1,0.3-0.2,0.6-0.4,0.9l32.8-36.7
			c-5.3-2.6-10.1-5.8-14.5-9.4L280.8,238.7z"/>
		<path class="st0" d="M281.8,165.1l34.1,34.1c0.1,0.1,0.1,0.2,0,0.3l-1.1,1.2c4.4,3.6,9.2,6.8,14.5,9.4l0.2-0.2l-53-50.8
			C278.3,161.1,280.1,163.1,281.8,165.1z"/>
		<path class="st1" d="M481.8,385.6c-10.6-7.5-22.9-11.5-35.3-12.2h-0.1c-46.7-30.6-77.3-53.5-95.2-71.4l-54.8-54.8c0,0,0,0,0-0.1
			c-2.2,4.8-7,7.7-10.7,11.8c0.1-0.1,0.2-0.1,0.3,0l55,55c15.3,16.2,41.7,36.6,79.9,62.1c0.1,0.1,0.1,0.3,0,0.3
			c-5,1.7-10,4.2-15,7.6c-10.6,6.6-18.1,15.8-23.3,25.9c-0.1,0.1-0.1,0.3-0.2,0.4c-0.3,0.6-0.6,1.2-0.9,1.8
			c-0.4,0.9-0.8,1.8-1.2,2.7c-0.3,0.6-0.5,1.2-0.8,1.8c0,0.1-0.1,0.2-0.1,0.3c-0.2,0.6-0.4,1.1-0.7,1.7c-0.1,0.1-0.2,0.2-0.3,0
			c-4.7-7-9.3-13.5-13.7-19.7c-0.1-0.1,0-0.2,0-0.2l11-11c3.8-3.8,3.5-10.3-1-13.4c-3.3-2.3-7.6-1.9-10.6,1.1l-9.4,9.4
			c-0.1,0.1-0.2,0.1-0.3,0c-3.5-4.7-6.8-9.1-10-13.3c-0.1-0.1,0-0.2,0-0.2l7.4-7.4c3.8-3.8,3.5-10.3-1-13.4
			c-3.3-2.3-7.6-1.9-10.6,1.1l-6.4,6.4c-0.1,0.1-0.2,0.1-0.3,0c-6.2-7.5-12-13.9-17.2-19.1L263,285.4c-3.5,4.5-8.4,7.9-12.1,12.8
			c0.1,0,0.2,0,0.2,0l52.5,52.5c17.9,17.9,40.9,49.4,71.5,95.4v0.1c1.1,16.4,7.8,31.7,19.7,43.6c12.8,12.8,29.9,19.6,47.8,19.6
			c2.6,0,5.1,0,6.8,0c2.6,0,5.1-1.7,6.8-4.3c1.7-2.6,1.7-6,0-8.5l-24.7-41.7c0-0.1,0-0.1,0-0.2c6-11,17-17.8,29.7-17
			c0.1,0,0.1,0,0.2,0.1l23.8,40.9c0.8,2.5,4.2,4.3,6.8,4.3c0,0,0,0,0.1,0c3.4-0.9,5.9-1.7,7.6-4.3
			C520.2,447.9,511.7,406.9,481.8,385.6z M491.3,455.1c0,0.2-0.3,0.2-0.3,0l-17.7-30.3c-1.7-2.6-4.3-4.3-6.8-4.3h-4.3l0,0
			c-19.6-1.7-37.5,9.4-46,26.4l0,0l-1.7,4.2l0,0c-1.7,2.6-1.7,5.1,0,7.7L433,491c0.1,0.1,0,0.3-0.2,0.3
			c-10.1-1.8-19.3-6.9-26.9-14.4c-8.6-9.3-14.2-21.1-14.7-33.8l0,0c0.1-0.6,0.2-1.3,0.2-2c0-10.8,3.4-20.9,9.4-29.5
			c3.7-5.1,8.3-9.6,13.6-13.2c8.5-6,17.9-8.5,28.1-8.5s20.5,3.4,29,9.4C489.4,412,497.1,434.8,491.3,455.1z"/>
	</g>
</g>
</svg>
