<?xml version="1.0" encoding="utf-8"?>
<!-- Generator: Adobe Illustrator 21.0.0, SVG Export Plug-In . SVG Version: 6.00 Build 0)  -->
<svg version="1.1" id="Слой_1" xmlns="http://www.w3.org/2000/svg" xmlns:xlink="http://www.w3.org/1999/xlink" x="0px" y="0px"
	 viewBox="0 0 496 496" style="enable-background:new 0 0 496 496;" xml:space="preserve">
<style type="text/css">
	.st0{fill:none;}
	.st1{fill:#8BC34A;}
	.st2{fill:#636363;}
</style>
<g>
	<title>background</title>
	<rect id="canvas_background" x="-1" y="-1" class="st0" width="498" height="498"/>
</g>
<g>
	<title>Layer 1</title>
	<path id="svg_2" class="st1" d="M210.4,231.7l-6.8,14.5l23.5,11L90.5,306.9l-30.8-14.3L0.9,314l41,19.1l-19.1,41l58.8-21.4
		L96,321.9l136.6-49.7l-11,23.5l14.5,6.8l22.5-48.3L210.4,231.7L210.4,231.7z M69.9,339.9l-16.3,5.9l9.6-20.5l-20.5-9.6l16.3-5.9
		l20.5,9.6L69.9,339.9z"/>
	<g id="svg_3">
		<path id="svg_4" class="st2" d="M190.4,299.2l-12.8,9.6c16.8,22.4,42.5,35.2,70.4,35.2c48.5,0,88-39.5,88-88s-39.5-88-88-88
			s-88,39.5-88,88c0,3,0.2,5.9,0.4,8.8l15.9-1.6c-0.2-2.4-0.4-4.8-0.4-7.2c0-39.7,32.3-72,72-72s72,32.3,72,72s-32.3,72-72,72
			C225.1,328,204.1,317.5,190.4,299.2z"/>
		<path id="svg_5" class="st2" d="M248,296v16c30.9,0,56-25.1,56-56s-25.1-56-56-56c-13.8,0-27.1,5.1-37.3,14.3l10.7,11.9
			c7.3-6.6,16.8-10.2,26.7-10.2c22.1,0,40,17.9,40,40S270.1,296,248,296z"/>
		<path id="svg_9" class="st2" d="M337,336.2c19.2-21.3,31-49.3,31-80.2c0-66.2-53.8-120-120-120s-120,53.8-120,120
			c0,5.7,0.4,11.5,1.2,17.1l15.8-2.2c-0.7-4.9-1-9.9-1-14.9c0-57.3,46.7-104,104-104s104,46.7,104,104s-46.7,104-104,104
			c-34,0-65.9-16.7-85.4-44.6l-13.1,9.2c2.9,4.1,6,8.1,9.4,11.8l-60,120c-1.9,3.8-2.9,8-2.9,12.2c0,15.1,12.3,27.4,28,27.4
			c10.5,0,19.8-5.8,24.5-15.2l20.4-40.8h158.1l20.4,40.8c4.7,9.4,14.1,15.2,25.1,15.2c15.1,0,27.4-12.3,27.4-27.4
			c0-4.2-1-8.5-2.9-12.3L337,336.2L337,336.2z M291,367.9l12,24.1H192.9l12-24c13.6,5.2,28.1,8,43,8
			C263.2,376,277.6,373.1,291,367.9z M134.2,473.7c-1.9,3.9-5.9,6.3-10.8,6.3c-6.3,0-11.4-5.1-11.4-11.4c0-1.8,0.4-3.5,1.2-5.1
			L171,347.9c6.1,5.1,12.6,9.5,19.5,13.3L134.2,473.7L134.2,473.7z M176.9,424l8-16h126.1l8,16H176.9z M372,480
			c-4.4,0-8.3-2.4-10.2-6.3l-56.2-112.4c6.9-3.8,13.4-8.3,19.4-13.3l57.8,115.6c0.8,1.6,1.2,3.4,1.2,5.1
			C384,474.9,378.9,480,372,480z"/>
		<path id="svg_10" class="st2" d="M456,111.6C455.8,76.5,427.2,48,392,48c-0.6,0-1.1,0.1-1.7,0.1C375.8,19.6,346.2,0,312,0
			c-25.2,0-47.9,10.7-63.9,27.7C231.5,10,208.6,0,184,0c-33.2,0-63.4,18.7-78.4,48.1c-0.5,0-1.1-0.1-1.6-0.1
			c-35.2,0-63.8,28.5-64,63.6C16.3,123.4,0,147.8,0,176c0,39.7,32.3,72,72,72h40v-16H72c-30.9,0-56-25.1-56-56s25.1-56,56-56v-16
			c-5.3,0-10.5,0.6-15.5,1.7C59.5,82.2,79.7,64,104,64c26.5,0,48,21.5,48,48h16c0-28.9-19.2-53.3-45.6-61.3
			C135.4,29.4,158.6,16,184,16c21,0,40.3,8.9,54,24.5c-8.8,13.7-14,30-14,47.5h16c0-39.7,32.3-72,72-72s72,32.3,72,72h16
			c0-8.2-1.2-16.2-3.4-23.8c22.2,2.1,40,19.5,42.9,41.5c-5-1.1-10.2-1.7-15.5-1.7v16c30.9,0,56,25.1,56,56s-25.1,56-56,56h-40v16h40
			c39.7,0,72-32.3,72-72C496,147.8,479.7,123.4,456,111.6z"/>
	</g>
	<g id="svg_11">
	</g>
	<g id="svg_12">
	</g>
	<g id="svg_13">
	</g>
	<g id="svg_14">
	</g>
	<g id="svg_15">
	</g>
	<g id="svg_16">
	</g>
	<g id="svg_17">
	</g>
	<g id="svg_18">
	</g>
	<g id="svg_19">
	</g>
	<g id="svg_20">
	</g>
	<g id="svg_21">
	</g>
	<g id="svg_22">
	</g>
	<g id="svg_23">
	</g>
	<g id="svg_24">
	</g>
	<g id="svg_25">
	</g>
</g>
</svg>
