<svg width="497.384" height="497.384" xmlns="http://www.w3.org/2000/svg">
 <g>
  <title>background</title>
  <rect x="-1" y="-1" width="499.384" height="499.384" id="canvas_background" fill="none"/>
 </g>

 <g>
  <title>Layer 1</title>
  <polygon points="125.616,345.78 109.768,343.604 119.208,274.572 111,262.036 124.384,253.268   135.872,270.812 " fill="#0062ff" id="svg_2"/>
  <polygon points="149.152,345.78 138.896,270.812 150.384,253.268 163.768,262.036 155.56,274.572   165,343.604 " fill="#0062ff" id="svg_4"/>
  <g id="svg_5">
   <rect x="427.384" y="409.692" width="32" height="48" fill="#0062ff" id="svg_7"/>
  </g>
  <g id="svg_8">
   <rect x="385.384" y="264.692" width="80" height="16" fill="#0062ff" id="svg_9"/>
   <rect x="385.384" y="296.692" width="16" height="16" fill="#0062ff" id="svg_10"/>
   <rect x="417.384" y="296.692" width="48" height="16" fill="#0062ff" id="svg_11"/>
   <rect x="321.384" y="336.692" width="144" height="16" fill="#0062ff" id="svg_12"/>
   <rect x="321.384" y="368.692" width="144" height="16" fill="#0062ff" id="svg_13"/>
   <rect x="321.384" y="408.692" width="16" height="16" fill="#0062ff" id="svg_14"/>
   <rect x="353.384" y="408.692" width="48" height="16" fill="#0062ff" id="svg_15"/>
   <rect x="321.384" y="440.692" width="80" height="16" fill="#0062ff" id="svg_16"/>
  </g>
  <g id="svg_17">
   <path d="m46.168,160.716c4.704,4.952 10.912,8.184 17.568,9.392c1.592,3.92 3.944,7.528 7.024,10.6l30.952,30.952c4.528,4.536 10.552,7.032 16.968,7.032l29.416,0c6.408,0 12.44,-2.496 16.968,-7.032l30.952,-30.944c3.08,-3.08 5.432,-6.688 7.024,-10.608c6.656,-1.208 12.864,-4.44 17.568,-9.392c6.104,-6.432 9.2,-14.856 8.736,-23.728c-0.376,-7.264 -3.376,-13.76 -7.952,-18.928l0,-51.368c0,-15.96 -11.744,-29.232 -27.04,-31.624c-11.824,-20.08 -33.168,-32.376 -56.744,-32.376c-50.856,0 -92.224,41.368 -92.224,92.224l0,23.136c-4.576,5.168 -7.576,11.664 -7.952,18.928c-0.464,8.88 2.632,17.304 8.736,23.736zm7.24,-22.896c0.272,-5.224 3.424,-9.832 7.976,-12.552l0,27.2c-1.304,-0.76 -2.536,-1.64 -3.608,-2.768c-3.056,-3.208 -4.6,-7.432 -4.368,-11.88zm131.288,31.576l-30.952,30.952c-1.488,1.488 -3.544,2.344 -5.656,2.344l-29.416,0c-2.104,0 -4.168,-0.856 -5.656,-2.344l-30.952,-30.952c-3.016,-3.024 -4.68,-7.04 -4.68,-11.312l0,-35.392l43.16,0c16.824,0 32.664,-6.784 44.192,-18.552l1.872,2.808c5.32,7.976 13.552,13.296 22.776,15.056l0,36.08c0,4.272 -1.664,8.288 -4.688,11.312zm24.296,-19.696c-1.072,1.128 -2.312,2.008 -3.608,2.768l0,-27.2c4.552,2.72 7.704,7.328 7.976,12.552c0.232,4.448 -1.312,8.672 -4.368,11.88zm-71.384,-131.008c19.016,0 36.112,10.568 44.616,27.576l2.208,4.424l4.952,0c8.824,0 16,7.176 16,16l0,41.416c-2.992,-0.832 -6.088,-1.416 -9.36,-1.416c-6.488,0 -12.504,-3.224 -16.104,-8.624l-14.536,-21.8l-6.656,9.984c-8.528,12.8 -22.808,20.44 -38.184,20.44l-49.8,0c-3.272,0 -6.368,0.584 -9.36,1.424l0,-13.192c0,-42.04 34.192,-76.232 76.224,-76.232z" fill="#3F3A34" id="svg_18"/>
   <path d="m221.472,237.356l-40.088,-16.072l0,-2.592l-16,0l0,8.464l-0.392,-0.096l-6.032,25.096l-16.816,-20.984l-17.52,0l-16.816,20.984l-6.032,-25.096l-0.392,0.096l0,-8.464l-16,0l0,2.592l-39.728,15.944c-20.136,6.984 -34.8,24.784 -38.272,46.456l-11.384,71.008l274.768,0l-11.376,-71.016c-3.48,-21.672 -18.144,-39.472 -37.92,-46.32zm2.872,101.336l-4.224,-43.968l-15.928,1.528l4.072,42.44l-149.76,0l4.08,-42.44l-15.928,-1.528l-4.232,43.968l-27.656,0l8.408,-52.488c2.536,-15.84 13.16,-28.824 28.072,-34l36.592,-14.672l12.04,50.104l32.424,-40.464l2.168,0l32.424,40.464l12.04,-50.104l36.944,14.808c14.56,5.048 25.176,18.024 27.72,33.864l8.4,52.488l-27.656,0z" fill="#3F3A34" id="svg_19"/>
   <path d="m285.384,498.692l208,0l0,-272l-208,0l0,272zm16,-256l176,0l0,240l-176,0l0,-240z" fill="#3F3A34" id="svg_20"/>
  </g>
  <g id="svg_26"/>
  <g id="svg_27"/>
  <g id="svg_28"/>
  <g id="svg_29"/>
  <g id="svg_30"/>
  <g id="svg_31"/>
  <g id="svg_32"/>
  <g id="svg_33"/>
  <g id="svg_34"/>
  <g id="svg_35"/>
  <g id="svg_36"/>
  <g id="svg_37"/>
  <g id="svg_38"/>
  <g id="svg_39"/>
  <g id="svg_40"/>
  <path fill="#0062ff" stroke-width="null" stroke-opacity="null" d="m381.930455,14.852694c-54.123728,0 -97.999949,43.876221 -97.999949,98c0,54.123573 43.87623,97.999992 97.999949,97.999992c54.123719,0 97.999889,-43.876419 97.999889,-97.999992c0,-54.123779 -43.876169,-98 -97.999889,-98zm-15.744249,163.575156l-23.844129,-23.864863l41.718141,-41.715502l-41.718141,-41.715485l23.844129,-23.844223l65.567247,65.559708l-65.567247,65.580365z" id="svg_41" transform="rotate(90 381.930419921875,112.85269165039067) " stroke="null"/>
 </g>
</svg>