<?xml version="1.0" encoding="iso-8859-1"?>
<!-- Generator: Adobe Illustrator 19.0.0, SVG Export Plug-In . SVG Version: 6.00 Build 0)  -->
<svg version="1.1" id="Capa_1" xmlns="http://www.w3.org/2000/svg" xmlns:xlink="http://www.w3.org/1999/xlink" x="0px" y="0px"
	 viewBox="0 0 496 496" style="enable-background:new 0 0 496 496;" xml:space="preserve">
<g>
	<path style="fill:#FFCB57;" d="M403.712,312H401.2c-5.976,0-11.8,1.896-16.64,5.408l-17.544,12.76L365.2,328
		c-4.568-9.472-14.264-16-25.488-16H337.2c-5.976,0-11.8,1.896-16.64,5.408L240,376h-50.8c1.744-3.648,2.8-7.688,2.8-12
		c0-15.464-12.536-28-28-28H88L8,392v96h96l40-32h157.488c16.976,0,33.256-6.744,45.256-18.744l76.968-76.968
		c5.304-5.304,8.288-12.496,8.288-20C432,324.664,419.336,312,403.712,312z"/>
	<path style="fill:#FFCB57;" d="M92.288,184h2.52c5.976,0,11.8-1.896,16.64-5.408l17.544-12.76L130.8,168
		c4.568,9.472,14.264,16,25.488,16h2.52c5.976,0,11.8-1.896,16.64-5.408L256,120h50.8c-1.744,3.648-2.8,7.688-2.8,12
		c0,15.464,12.536,28,28,28h76l80-56V8h-96l-40,32H194.512c-16.976,0-33.256,6.744-45.256,18.744l-76.968,76.968
		c-5.312,5.312-8.288,12.504-8.288,20C64,171.336,76.664,184,92.288,184z"/>
</g>
<path style="fill:#E56565;" d="M272,312h-48v-80h-16v-48h64V312z M240,296h16v-96h-32v16h16V296z"/>
<g>
	<path style="fill:#3F3A34;" d="M403.712,304H401.2c-7.72,0-15.104,2.4-21.344,6.944l-10.928,7.952
		C362.16,309.712,351.32,304,339.712,304H337.2c-7.72,0-15.104,2.4-21.344,6.944L237.4,368H216v16h90.6l82.664-60.12
		c3.496-2.544,7.616-3.88,11.936-3.88h2.512c11.184,0,20.288,9.104,20.288,20.288c0,5.416-2.112,10.512-5.944,14.344L341.088,431.6
		c-10.576,10.576-24.64,16.4-39.6,16.4H141.192l-40,32H16v-83.832L90.52,344H164c11.024,0,20,8.976,20,20s-8.976,20-20,20h-60v16h60
		c19.848,0,36-16.152,36-36s-16.152-36-36-36H85.48L0,387.832V496h106.808l40-32h154.688c19.232,0,37.312-7.488,50.912-21.088
		l76.968-76.968c6.848-6.856,10.624-15.968,10.624-25.656C440,320.28,423.72,304,403.712,304z M301.4,368h-36.8l60.664-44.12
		c3.496-2.544,7.616-3.88,11.936-3.88h2.512c6.576,0,12.416,3.2,16.192,8.352L301.4,368z"/>
	<path style="fill:#3F3A34;" d="M389.192,0l-40,32H194.504c-19.232,0-37.312,7.488-50.912,21.088l-76.968,76.968
		C59.776,136.912,56,146.024,56,155.712C56,175.72,72.28,192,92.288,192H94.8c7.72,0,15.104-2.4,21.344-6.944l10.928-7.952
		C133.84,186.288,144.68,192,156.288,192h2.512c7.72,0,15.104-2.4,21.344-6.944L258.6,128H280v-16h-90.6l-82.664,60.12
		C103.24,174.664,99.12,176,94.8,176h-2.512C81.104,176,72,166.896,72,155.712c0-5.416,2.112-10.512,5.944-14.344L154.912,64.4
		c10.576-10.576,24.64-16.4,39.592-16.4H354.8l40-32H480v83.832L405.48,152H332c-11.024,0-20-8.976-20-20s8.976-20,20-20h60V96h-60
		c-19.848,0-36,16.152-36,36s16.152,36,36,36h78.52L496,108.168V0H389.192z M194.6,128h36.8l-60.664,44.12
		c-3.496,2.544-7.616,3.88-11.936,3.88h-2.512c-6.576,0-12.416-3.2-16.192-8.352L194.6,128z"/>
	<path style="fill:#3F3A34;" d="M342.456,291.336C348.792,277.56,352,262.984,352,248c0-57.344-46.656-104-104-104v16
		c48.52,0,88,39.48,88,88c0,12.656-2.72,24.992-8.08,36.664L342.456,291.336z"/>
	<path style="fill:#3F3A34;" d="M153.544,204.664C147.208,218.44,144,233.016,144,248c0,57.344,46.656,104,104,104v-16
		c-48.52,0-88-39.48-88-88c0-12.656,2.72-24.992,8.08-36.664L153.544,204.664z"/>
</g>
<g>
</g>
<g>
</g>
<g>
</g>
<g>
</g>
<g>
</g>
<g>
</g>
<g>
</g>
<g>
</g>
<g>
</g>
<g>
</g>
<g>
</g>
<g>
</g>
<g>
</g>
<g>
</g>
<g>
</g>
</svg>
