<svg width="496" height="496" xmlns="http://www.w3.org/2000/svg">
 <g>
  <title>background</title>
  <rect x="-1" y="-1" width="498" height="498" id="canvas_background" fill="none"/>
 </g>

 <g>
  <title>Layer 1</title>
  <g id="svg_5">
   <path d="m403.712,304l-2.512,0c-7.72,0 -15.104,2.4 -21.344,6.944l-10.928,7.952c-6.768,-9.184 -17.608,-14.896 -29.216,-14.896l-2.512,0c-7.72,0 -15.104,2.4 -21.344,6.944l-78.456,57.056l-21.4,0l0,16l90.6,0l82.664,-60.12c3.496,-2.544 7.616,-3.88 11.936,-3.88l2.512,0c11.184,0 20.288,9.104 20.288,20.288c0,5.416 -2.112,10.512 -5.944,14.344l-76.968,76.968c-10.576,10.576 -24.64,16.4 -39.6,16.4l-160.296,0l-40,32l-85.192,0l0,-83.832l74.52,-52.168l73.48,0c11.024,0 20,8.976 20,20s-8.976,20 -20,20l-60,0l0,16l60,0c19.848,0 36,-16.152 36,-36s-16.152,-36 -36,-36l-78.52,0l-85.48,59.832l0,108.168l106.808,0l40,-32l154.688,0c19.232,0 37.312,-7.488 50.912,-21.088l76.968,-76.968c6.848,-6.856 10.624,-15.968 10.624,-25.656c0,-20.008 -16.28,-36.288 -36.288,-36.288zm-102.312,64l-36.8,0l60.664,-44.12c3.496,-2.544 7.616,-3.88 11.936,-3.88l2.512,0c6.576,0 12.416,3.2 16.192,8.352l-54.504,39.648z" fill="#3F3A34" id="svg_6"/>
   <path d="m389.192,0l-40,32l-154.688,0c-19.232,0 -37.312,7.488 -50.912,21.088l-76.968,76.968c-6.848,6.856 -10.624,15.968 -10.624,25.656c0,20.008 16.28,36.288 36.288,36.288l2.512,0c7.72,0 15.104,-2.4 21.344,-6.944l10.928,-7.952c6.768,9.184 17.608,14.896 29.216,14.896l2.512,0c7.72,0 15.104,-2.4 21.344,-6.944l78.456,-57.056l21.4,0l0,-16l-90.6,0l-82.664,60.12c-3.496,2.544 -7.616,3.88 -11.936,3.88l-2.512,0c-11.184,0 -20.288,-9.104 -20.288,-20.288c0,-5.416 2.112,-10.512 5.944,-14.344l76.968,-76.968c10.576,-10.576 24.64,-16.4 39.592,-16.4l160.296,0l40,-32l85.2,0l0,83.832l-74.52,52.168l-73.48,0c-11.024,0 -20,-8.976 -20,-20s8.976,-20 20,-20l60,0l0,-16l-60,0c-19.848,0 -36,16.152 -36,36s16.152,36 36,36l78.52,0l85.48,-59.832l0,-108.168l-106.808,0zm-194.592,128l36.8,0l-60.664,44.12c-3.496,2.544 -7.616,3.88 -11.936,3.88l-2.512,0c-6.576,0 -12.416,-3.2 -16.192,-8.352l54.504,-39.648z" fill="#3F3A34" id="svg_7"/>
   <path d="m342.456,291.336c6.336,-13.776 9.544,-28.352 9.544,-43.336c0,-57.344 -46.656,-104 -104,-104l0,16c48.52,0 88,39.48 88,88c0,12.656 -2.72,24.992 -8.08,36.664l14.536,6.672z" fill="#3F3A34" id="svg_8"/>
   <path d="m153.544,204.664c-6.336,13.776 -9.544,28.352 -9.544,43.336c0,57.344 46.656,104 104,104l0,-16c-48.52,0 -88,-39.48 -88,-88c0,-12.656 2.72,-24.992 8.08,-36.664l-14.536,-6.672z" fill="#3F3A34" id="svg_9"/>
  </g>
  <g id="svg_10"/>
  <g id="svg_11"/>
  <g id="svg_12"/>
  <g id="svg_13"/>
  <g id="svg_14"/>
  <g id="svg_15"/>
  <g id="svg_16"/>
  <g id="svg_17"/>
  <g id="svg_18"/>
  <g id="svg_19"/>
  <g id="svg_20"/>
  <g id="svg_21"/>
  <g id="svg_22"/>
  <g id="svg_23"/>
  <g id="svg_24"/>
  <path fill="#0062ff" stroke="null" stroke-width="null" stroke-opacity="null" d="m247.697394,186.114738c-33.137399,0 -59.999999,26.862249 -59.999999,59.999989c0,33.137044 26.862599,60.000008 59.999999,60.000008c33.137783,0 59.999999,-26.862964 59.999999,-60.000008c0,-33.13774 -26.862215,-59.999989 -59.999999,-59.999989zm5.181101,92.529934l0,8.451153l-8.083089,0l0,-8.355936c-13.264176,-1.816507 -19.07674,-12.71496 -19.07674,-12.71496l8.264923,-6.906278c0,0 5.267722,9.177149 14.803992,9.177149c5.267299,0 9.263717,-2.819597 9.263717,-7.63379c0,-11.265317 -30.338548,-9.899261 -30.338548,-30.792167c0,-9.082699 7.174805,-15.625977 17.078356,-17.16934l0,-8.450309l8.083425,0l0,8.445633c6.902395,0.908645 15.076377,4.541698 15.076377,12.355929l0,5.994413l-10.717315,0l0,-2.906194c0,-2.996899 -3.81852,-4.995355 -8.086977,-4.995355c-5.449205,0 -9.445641,2.724485 -9.445641,6.539371c0,11.533944 30.338539,8.718921 30.338539,30.611107c0.004334,8.995205 -6.716505,16.806249 -17.161017,18.349579l0,-0.000005l-0.000002,0z" id="svg_25"/>
 </g>
</svg>