<?xml version="1.0" encoding="iso-8859-1"?>
<!-- Generator: Adobe Illustrator 19.0.0, SVG Export Plug-In . SVG Version: 6.00 Build 0)  -->
<svg version="1.1" id="Capa_1" xmlns="http://www.w3.org/2000/svg" xmlns:xlink="http://www.w3.org/1999/xlink" x="0px" y="0px"
	 viewBox="0 0 496 496" style="enable-background:new 0 0 496 496;" xml:space="preserve">
<path style="fill:#FFCB57;" d="M384,104c-57.44,0-104,46.56-104,104s46.56,104,104,104s104-46.56,104-104S441.44,104,384,104z
	 M384,280c-39.768,0-72-32.232-72-72s32.232-72,72-72s72,32.232,72,72S423.768,280,384,280z"/>
<g>
	<rect x="32" y="32" style="fill:#E56565;" width="16" height="16"/>
	<rect x="64" y="32" style="fill:#E56565;" width="16" height="16"/>
	<rect x="96" y="32" style="fill:#E56565;" width="16" height="16"/>
	<path style="fill:#E56565;" d="M352,80H0V0h352V80z M16,64h320V16H16V64z"/>
</g>
<rect x="104" y="104" style="fill:#FFCB57;" width="144" height="144"/>
<g>
	<path style="fill:#3F3A34;" d="M464,208c0-44.112-35.888-80-80-80s-80,35.888-80,80s35.888,80,80,80S464,252.112,464,208z M320,208
		c0-35.288,28.712-64,64-64s64,28.712,64,64s-28.712,64-64,64S320,243.288,320,208z"/>
	<path style="fill:#3F3A34;" d="M496,208c0-61.76-50.24-112-112-112s-112,50.24-112,112c0,50.632,33.8,93.472,80,107.28V336h-16v16
		h16v16h-16v16h16v80c0,17.648,14.352,32,32,32s32-14.352,32-32v-80h16v-16h-16v-16h16v-16h-16v-20.72
		C462.2,301.472,496,258.632,496,208z M288,208c0-52.936,43.064-96,96-96s96,43.064,96,96s-43.064,96-96,96S288,260.936,288,208z
		 M400,464c0,8.824-7.176,16-16,16s-16-7.176-16-16v-80h32V464z M400,368h-32v-16h32V368z M400,336h-32v-17.28
		c5.24,0.752,10.552,1.28,16,1.28s10.76-0.52,16-1.28V336z"/>
	<polygon style="fill:#3F3A34;" points="16,96 0,96 0,384 320,384 320,368 16,368 	"/>
	<path style="fill:#3F3A34;" d="M256,96H96v160h160V96z M240,240H112V112h128V240z"/>
	<rect x="96" y="272" style="fill:#3F3A34;" width="160" height="16"/>
	<rect x="128" y="304" style="fill:#3F3A34;" width="128" height="16"/>
	<rect x="96" y="304" style="fill:#3F3A34;" width="16" height="16"/>
	<rect x="240" y="336" style="fill:#3F3A34;" width="16" height="16"/>
	<rect x="96" y="336" style="fill:#3F3A34;" width="128" height="16"/>
	<path style="fill:#3F3A34;" d="M144,208c0-8.824,7.176-16,16-16h32c8.824,0,16,7.176,16,16v16h16v-16
		c0-13.952-9.024-25.712-21.504-30.088C205.968,172.8,208,166.632,208,160c0-17.648-14.352-32-32-32s-32,14.352-32,32
		c0,6.632,2.032,12.8,5.504,17.912C137.024,182.288,128,194.048,128,208v16h16V208z M176,144c8.824,0,16,7.176,16,16
		s-7.176,16-16,16s-16-7.176-16-16S167.176,144,176,144z"/>
</g>
<g>
</g>
<g>
</g>
<g>
</g>
<g>
</g>
<g>
</g>
<g>
</g>
<g>
</g>
<g>
</g>
<g>
</g>
<g>
</g>
<g>
</g>
<g>
</g>
<g>
</g>
<g>
</g>
<g>
</g>
</svg>
