<svg width="496" height="496" xmlns="http://www.w3.org/2000/svg">
 <g>
  <title>background</title>
  <rect x="-1" y="-1" width="498" height="498" id="canvas_background" fill="none"/>
 </g>

 <g>
  <title>Layer 1</title>
  <g id="svg_2">
   <rect x="32" y="32" width="16" height="16" fill="#0062ff" id="svg_3"/>
   <rect x="64" y="32" width="16" height="16" fill="#0062ff" id="svg_4"/>
   <rect x="96" y="32" width="16" height="16" fill="#0062ff" id="svg_5"/>
   <path d="m352,80l-352,0l0,-80l352,0l0,80zm-336,-16l320,0l0,-48l-320,0l0,48z" fill="#0062ff" id="svg_6"/>
  </g>
  <g id="svg_8">
   <path d="m464,208c0,-44.112 -35.888,-80 -80,-80s-80,35.888 -80,80s35.888,80 80,80s80,-35.888 80,-80zm-144,0c0,-35.288 28.712,-64 64,-64s64,28.712 64,64s-28.712,64 -64,64s-64,-28.712 -64,-64z" fill="#3F3A34" id="svg_9"/>
   <path d="m496,208c0,-61.76 -50.24,-112 -112,-112s-112,50.24 -112,112c0,50.632 33.8,93.472 80,107.28l0,20.72l-16,0l0,16l16,0l0,16l-16,0l0,16l16,0l0,80c0,17.648 14.352,32 32,32s32,-14.352 32,-32l0,-80l16,0l0,-16l-16,0l0,-16l16,0l0,-16l-16,0l0,-20.72c46.2,-13.808 80,-56.648 80,-107.28zm-208,0c0,-52.936 43.064,-96 96,-96s96,43.064 96,96s-43.064,96 -96,96s-96,-43.064 -96,-96zm112,256c0,8.824 -7.176,16 -16,16s-16,-7.176 -16,-16l0,-80l32,0l0,80zm0,-96l-32,0l0,-16l32,0l0,16zm0,-32l-32,0l0,-17.28c5.24,0.752 10.552,1.28 16,1.28s10.76,-0.52 16,-1.28l0,17.28z" fill="#3F3A34" id="svg_10"/>
   <polygon points="16,96 0,96 0,384 320,384 320,368 16,368  " fill="#3F3A34" id="svg_11"/>
   <path d="m256,96l-160,0l0,160l160,0l0,-160zm-16,144l-128,0l0,-128l128,0l0,128z" fill="#3F3A34" id="svg_12"/>
   <rect x="96" y="272" width="160" height="16" fill="#3F3A34" id="svg_13"/>
   <rect x="128" y="304" width="128" height="16" fill="#3F3A34" id="svg_14"/>
   <rect x="96" y="304" width="16" height="16" fill="#3F3A34" id="svg_15"/>
   <rect x="240" y="336" width="16" height="16" fill="#3F3A34" id="svg_16"/>
   <rect x="96" y="336" width="128" height="16" fill="#3F3A34" id="svg_17"/>
   <path d="m144,208c0,-8.824 7.176,-16 16,-16l32,0c8.824,0 16,7.176 16,16l0,16l16,0l0,-16c0,-13.952 -9.024,-25.712 -21.504,-30.088c3.472,-5.112 5.504,-11.28 5.504,-17.912c0,-17.648 -14.352,-32 -32,-32s-32,14.352 -32,32c0,6.632 2.032,12.8 5.504,17.912c-12.48,4.376 -21.504,16.136 -21.504,30.088l0,16l16,0l0,-16zm32,-64c8.824,0 16,7.176 16,16s-7.176,16 -16,16s-16,-7.176 -16,-16s7.176,-16 16,-16z" fill="#0062ff" id="svg_18"/>
  </g>
  <g id="svg_19"/>
  <g id="svg_20"/>
  <g id="svg_21"/>
  <g id="svg_22"/>
  <g id="svg_23"/>
  <g id="svg_24"/>
  <g id="svg_25"/>
  <g id="svg_26"/>
  <g id="svg_27"/>
  <g id="svg_28"/>
  <g id="svg_29"/>
  <g id="svg_30"/>
  <g id="svg_31"/>
  <g id="svg_32"/>
  <g id="svg_33"/>
 </g>
</svg>