<?xml version="1.0" encoding="iso-8859-1"?>
<!-- Generator: Adobe Illustrator 19.0.0, SVG Export Plug-In . SVG Version: 6.00 Build 0)  -->
<svg version="1.1" id="Capa_1" xmlns="http://www.w3.org/2000/svg" xmlns:xlink="http://www.w3.org/1999/xlink" x="0px" y="0px"
	 viewBox="0 0 496 496" style="enable-background:new 0 0 496 496;" xml:space="preserve">
<circle style="fill:#FFCB57;" cx="248" cy="256" r="120"/>
<path style="fill:#E56565;" d="M210.368,231.72l-6.768,14.496l23.512,10.968l-136.6,49.72L59.744,292.56L0.896,313.984
	l41.024,19.128L22.792,374.12l58.848-21.416l14.344-30.76l136.6-49.72l-10.96,23.512l14.496,6.76l22.504-48.264L210.368,231.72z
	 M69.936,339.936l-16.32,5.944l9.56-20.512l-20.504-9.56l16.32-5.936l20.504,9.56L69.936,339.936z"/>
<g>
	<path style="fill:#3F3A34;" d="M190.392,299.192l-12.8,9.608c16.8,22.368,42.464,35.2,70.408,35.2c48.52,0,88-39.48,88-88
		s-39.48-88-88-88s-88,39.48-88,88c0,2.976,0.152,5.912,0.44,8.808l15.92-1.608c-0.24-2.368-0.36-4.768-0.36-7.2
		c0-39.696,32.296-72,72-72s72,32.304,72,72s-32.296,72-72,72C225.136,328,204.144,317.504,190.392,299.192z"/>
	<path style="fill:#3F3A34;" d="M248,296v16c30.872,0,56-25.12,56-56s-25.128-56-56-56c-13.808,0-27.064,5.064-37.336,14.264
		l10.672,11.92C228.672,219.616,238.144,216,248,216c22.056,0,40,17.944,40,40S270.056,296,248,296z"/>
	<rect x="192" y="104" style="fill:#3F3A34;" width="16" height="16"/>
	<rect x="240" y="104" style="fill:#3F3A34;" width="16" height="16"/>
	<rect x="288" y="104" style="fill:#3F3A34;" width="16" height="16"/>
	<path style="fill:#3F3A34;" d="M337.032,336.176C356.208,314.896,368,286.832,368,256c0-66.168-53.832-120-120-120
		s-120,53.832-120,120c0,5.696,0.408,11.464,1.208,17.136l15.84-2.248C144.352,265.96,144,260.952,144,256
		c0-57.344,46.656-104,104-104s104,46.656,104,104s-46.656,104-104,104c-33.992,0-65.896-16.664-85.368-44.584l-13.128,9.152
		c2.888,4.144,6.04,8.064,9.384,11.768l-60.008,120C97,460.128,96,464.36,96,468.584C96,483.696,108.296,496,124,496
		c10.456,0,19.848-5.808,24.52-15.16L168.944,440h158.112l20.424,40.84c4.672,9.352,14.064,15.16,25.104,15.16
		c15.12,0,27.416-12.304,27.416-27.416c0-4.224-1-8.456-2.888-12.264L337.032,336.176z M291.008,367.896L303.056,392H192.944
		l12.016-24.032C218.528,373.184,233.08,376,248,376C263.168,376,277.632,373.056,291.008,367.896z M134.208,473.688
		c-1.944,3.896-5.856,6.312-10.792,6.312C117.12,480,112,474.88,112,468.584c0-1.76,0.416-3.528,1.2-5.104l57.808-115.608
		c6.056,5.072,12.56,9.528,19.456,13.296L134.208,473.688z M176.944,424l8-16h126.112l8,16H176.944z M372,480
		c-4.352,0-8.264-2.416-10.208-6.312L305.576,361.24c6.928-3.808,13.424-8.288,19.44-13.336l57.776,115.56
		c0.8,1.584,1.208,3.352,1.208,5.12C384,474.88,378.88,480,372,480z"/>
	<path style="fill:#3F3A34;" d="M455.976,111.584C455.752,76.488,427.152,48,392,48c-0.552,0-1.104,0.104-1.656,0.12
		C375.768,19.608,346.16,0,312,0c-25.184,0-47.864,10.688-63.92,27.704C231.488,10,208.64,0,184,0c-33.24,0-63.448,18.72-78.4,48.08
		c-0.536-0.016-1.064-0.08-1.6-0.08c-35.152,0-63.752,28.488-63.976,63.584C16.344,123.392,0,147.792,0,176
		c0,39.696,32.296,72,72,72h40v-16H72c-30.872,0-56-25.12-56-56s25.128-56,56-56v-16c-5.344,0-10.528,0.624-15.544,1.736
		C59.544,82.224,79.656,64,104,64c26.472,0,48,21.528,48,48h16c0-28.872-19.232-53.32-45.552-61.264
		C135.384,29.392,158.592,16,184,16c20.984,0,40.328,8.936,54.008,24.544C229.184,54.256,224,70.52,224,88h16
		c0-39.696,32.296-72,72-72s72,32.304,72,72h16c0-8.24-1.224-16.192-3.352-23.768c22.216,2.144,40.008,19.504,42.896,41.504
		C434.528,104.624,429.344,104,424,104v16c30.872,0,56,25.12,56,56s-25.128,56-56,56h-40v16h40c39.704,0,72-32.304,72-72
		C496,147.792,479.656,123.392,455.976,111.584z"/>
</g>
<g>
</g>
<g>
</g>
<g>
</g>
<g>
</g>
<g>
</g>
<g>
</g>
<g>
</g>
<g>
</g>
<g>
</g>
<g>
</g>
<g>
</g>
<g>
</g>
<g>
</g>
<g>
</g>
<g>
</g>
</svg>
