<svg width="496" height="496" xmlns="http://www.w3.org/2000/svg">

 <g>
  <title>background</title>
  <rect fill="none" id="canvas_background" height="498" width="498" y="-1" x="-1"/>
 </g>
 <g>
  <title>Layer 1</title>
  <path id="svg_2" fill="#0062ff" d="m210.368,231.72l-6.768,14.496l23.512,10.968l-136.6,49.72l-30.768,-14.344l-58.848,21.424l41.024,19.128l-19.128,41.008l58.848,-21.416l14.344,-30.76l136.6,-49.72l-10.96,23.512l14.496,6.76l22.504,-48.264l-48.256,-22.512zm-140.432,108.216l-16.32,5.944l9.56,-20.512l-20.504,-9.56l16.32,-5.936l20.504,9.56l-9.56,20.504z"/>
  <g id="svg_3">
   <path id="svg_4" fill="#3F3A34" d="m190.392,299.192l-12.8,9.608c16.8,22.368 42.464,35.2 70.408,35.2c48.52,0 88,-39.48 88,-88s-39.48,-88 -88,-88s-88,39.48 -88,88c0,2.976 0.152,5.912 0.44,8.808l15.92,-1.608c-0.24,-2.368 -0.36,-4.768 -0.36,-7.2c0,-39.696 32.296,-72 72,-72s72,32.304 72,72s-32.296,72 -72,72c-22.864,0 -43.856,-10.496 -57.608,-28.808z"/>
   <path id="svg_5" fill="#3F3A34" d="m248,296l0,16c30.872,0 56,-25.12 56,-56s-25.128,-56 -56,-56c-13.808,0 -27.064,5.064 -37.336,14.264l10.672,11.92c7.336,-6.568 16.808,-10.184 26.664,-10.184c22.056,0 40,17.944 40,40s-17.944,40 -40,40z"/>
   <rect id="svg_6" fill="#3F3A34" height="16" width="16" y="104" x="192"/>
   <rect id="svg_7" fill="#3F3A34" height="16" width="16" y="104" x="240"/>
   <rect id="svg_8" fill="#3F3A34" height="16" width="16" y="104" x="288"/>
   <path id="svg_9" fill="#3F3A34" d="m337.032,336.176c19.176,-21.28 30.968,-49.344 30.968,-80.176c0,-66.168 -53.832,-120 -120,-120s-120,53.832 -120,120c0,5.696 0.408,11.464 1.208,17.136l15.84,-2.248c-0.696,-4.928 -1.048,-9.936 -1.048,-14.888c0,-57.344 46.656,-104 104,-104s104,46.656 104,104s-46.656,104 -104,104c-33.992,0 -65.896,-16.664 -85.368,-44.584l-13.128,9.152c2.888,4.144 6.04,8.064 9.384,11.768l-60.008,120c-1.88,3.792 -2.88,8.024 -2.88,12.248c0,15.112 12.296,27.416 28,27.416c10.456,0 19.848,-5.808 24.52,-15.16l20.424,-40.84l158.112,0l20.424,40.84c4.672,9.352 14.064,15.16 25.104,15.16c15.12,0 27.416,-12.304 27.416,-27.416c0,-4.224 -1,-8.456 -2.888,-12.264l-60.08,-120.144zm-46.024,31.72l12.048,24.104l-110.112,0l12.016,-24.032c13.568,5.216 28.12,8.032 43.04,8.032c15.168,0 29.632,-2.944 43.008,-8.104zm-156.8,105.792c-1.944,3.896 -5.856,6.312 -10.792,6.312c-6.296,0 -11.416,-5.12 -11.416,-11.416c0,-1.76 0.416,-3.528 1.2,-5.104l57.808,-115.608c6.056,5.072 12.56,9.528 19.456,13.296l-56.256,112.52zm42.736,-49.688l8,-16l126.112,0l8,16l-142.112,0zm195.056,56c-4.352,0 -8.264,-2.416 -10.208,-6.312l-56.216,-112.448c6.928,-3.808 13.424,-8.288 19.44,-13.336l57.776,115.56c0.8,1.584 1.208,3.352 1.208,5.12c0,6.296 -5.12,11.416 -12,11.416z"/>
   <path id="svg_10" fill="#3F3A34" d="m455.976,111.584c-0.224,-35.096 -28.824,-63.584 -63.976,-63.584c-0.552,0 -1.104,0.104 -1.656,0.12c-14.576,-28.512 -44.184,-48.12 -78.344,-48.12c-25.184,0 -47.864,10.688 -63.92,27.704c-16.592,-17.704 -39.44,-27.704 -64.08,-27.704c-33.24,0 -63.448,18.72 -78.4,48.08c-0.536,-0.016 -1.064,-0.08 -1.6,-0.08c-35.152,0 -63.752,28.488 -63.976,63.584c-23.68,11.808 -40.024,36.208 -40.024,64.416c0,39.696 32.296,72 72,72l40,0l0,-16l-40,0c-30.872,0 -56,-25.12 -56,-56s25.128,-56 56,-56l0,-16c-5.344,0 -10.528,0.624 -15.544,1.736c3.088,-23.512 23.2,-41.736 47.544,-41.736c26.472,0 48,21.528 48,48l16,0c0,-28.872 -19.232,-53.32 -45.552,-61.264c12.936,-21.344 36.144,-34.736 61.552,-34.736c20.984,0 40.328,8.936 54.008,24.544c-8.824,13.712 -14.008,29.976 -14.008,47.456l16,0c0,-39.696 32.296,-72 72,-72s72,32.304 72,72l16,0c0,-8.24 -1.224,-16.192 -3.352,-23.768c22.216,2.144 40.008,19.504 42.896,41.504c-5.016,-1.112 -10.2,-1.736 -15.544,-1.736l0,16c30.872,0 56,25.12 56,56s-25.128,56 -56,56l-40,0l0,16l40,0c39.704,0 72,-32.304 72,-72c0,-28.208 -16.344,-52.608 -40.024,-64.416z"/>
  </g>
  <g id="svg_11"/>
  <g id="svg_12"/>
  <g id="svg_13"/>
  <g id="svg_14"/>
  <g id="svg_15"/>
  <g id="svg_16"/>
  <g id="svg_17"/>
  <g id="svg_18"/>
  <g id="svg_19"/>
  <g id="svg_20"/>
  <g id="svg_21"/>
  <g id="svg_22"/>
  <g id="svg_23"/>
  <g id="svg_24"/>
  <g id="svg_25"/>
 </g>
</svg>